<svg xmlns="http://www.w3.org/2000/svg" width="400" height="380" font-family="DejaVu Sans, Verdana, Liberation Sans, Arial, sans-serif" fill="black"><rect width="100%" height="100%" fill="white" /><text x="170.19" y="29.71" font-size="18" text-anchor="middle">Project Task Status</text><rect x="62.39" y="80.17" width="19.6" height="19.6" fill="#4dac26" /><rect x="84.17" y="80.17" width="19.6" height="19.6" fill="#4dac26" /><rect x="105.94" y="80.17" width="19.6" height="19.6" fill="#4dac26" /><rect x="127.72" y="80.17" width="19.6" height="19.6" fill="#4dac26" /><rect x="149.5" y="80.17" width="19.6" height="19.6" fill="#4dac26" /><rect x="171.28" y="80.17" width="19.6" height="19.6" fill="#4dac26" /><rect x="193.06" y="80.17" width="19.6" height="19.6" fill="#4dac26" /><rect x="214.84" y="80.17" width="19.6" height="19.6" fill="#4dac26" /><rect x="236.62" y="80.17" width="19.6" height="19.6" fill="#4dac26" /><rect x="258.4" y="80.17" width="19.6" height="19.6" fill="#4dac26" /><rect x="62.39" y="101.95" width="19.6" height="19.6" fill="#4dac26" /><rect x="84.17" y="101.95" width="19.6" height="19.6" fill="#4dac26" /><rect x="105.94" y="101.95" width="19.6" height="19.6" fill="#4dac26" /><rect x="127.72" y="101.95" width="19.6" height="19.6" fill="#4dac26" /><rect x="149.5" y="101.95" width="19.6" height="19.6" fill="#4dac26" /><rect x="171.28" y="101.95" width="19.6" height="19.6" fill="#4dac26" /><rect x="193.06" y="101.95" width="19.6" height="19.6" fill="#4dac26" /><rect x="214.84" y="101.95" width="19.6" height="19.6" fill="#4dac26" /><rect x="236.62" y="101.95" width="19.6" height="19.6" fill="#4dac26" /><rect x="258.4" y="101.95" width="19.6" height="19.6" fill="#4dac26" /><rect x="62.39" y="123.73" width="19.6" height="19.6" fill="#4dac26" /><rect x="84.17" y="123.73" width="19.6" height="19.6" fill="#4dac26" /><rect x="105.94" y="123.73" width="19.6" height="19.6" fill="#4dac26" /><rect x="127.72" y="123.73" width="19.6" height="19.6" fill="#4dac26" /><rect x="149.5" y="123.73" width="19.6" height="19.6" fill="#4dac26" /><rect x="171.28" y="123.73" width="19.6" height="19.6" fill="#4dac26" /><rect x="193.06" y="123.73" width="19.6" height="19.6" fill="#4dac26" /><rect x="214.84" y="123.73" width="19.6" height="19.6" fill="#4dac26" /><rect x="236.62" y="123.73" width="19.6" height="19.6" fill="#4dac26" /><rect x="258.4" y="123.73" width="19.6" height="19.6" fill="#4dac26" /><rect x="62.39" y="145.51" width="19.6" height="19.6" fill="#4dac26" /><rect x="84.17" y="145.51" width="19.6" height="19.6" fill="#4dac26" /><rect x="105.94" y="145.51" width="19.6" height="19.6" fill="#4dac26" /><rect x="127.72" y="145.51" width="19.6" height="19.6" fill="#4dac26" /><rect x="149.5" y="145.51" width="19.6" height="19.6" fill="#4dac26" /><rect x="171.28" y="145.51" width="19.6" height="19.6" fill="#4dac26" /><rect x="193.06" y="145.51" width="19.6" height="19.6" fill="#4dac26" /><rect x="214.84" y="145.51" width="19.6" height="19.6" fill="#4dac26" /><rect x="236.62" y="145.51" width="19.6" height="19.6" fill="#4dac26" /><rect x="258.4" y="145.51" width="19.6" height="19.6" fill="#4dac26" /><rect x="62.39" y="167.29" width="19.6" height="19.6" fill="#4dac26" /><rect x="84.17" y="167.29" width="19.6" height="19.6" fill="#4dac26" /><rect x="105.94" y="167.29" width="19.6" height="19.6" fill="#4dac26" /><rect x="127.72" y="167.29" width="19.6" height="19.6" fill="#4dac26" /><rect x="149.5" y="167.29" width="19.6" height="19.6" fill="#4dac26" /><rect x="171.28" y="167.29" width="19.6" height="19.6" fill="#4dac26" /><rect x="193.06" y="167.29" width="19.6" height="19.6" fill="#4dac26" /><rect x="214.84" y="167.29" width="19.6" height="19.6" fill="#4dac26" /><rect x="236.62" y="167.29" width="19.6" height="19.6" fill="#4dac26" /><rect x="258.4" y="167.29" width="19.6" height="19.6" fill="#4dac26" /><rect x="62.39" y="189.07" width="19.6" height="19.6" fill="#4dac26" /><rect x="84.17" y="189.07" width="19.6" height="19.6" fill="#4dac26" /><rect x="105.94" y="189.07" width="19.6" height="19.6" fill="#4dac26" /><rect x="127.72" y="189.07" width="19.6" height="19.6" fill="#d01c8b" /><rect x="149.5" y="189.07" width="19.6" height="19.6" fill="#d01c8b" /><rect x="171.28" y="189.07" width="19.6" height="19.6" fill="#d01c8b" /><rect x="193.06" y="189.07" width="19.6" height="19.6" fill="#d01c8b" /><rect x="214.84" y="189.07" width="19.6" height="19.6" fill="#d01c8b" /><rect x="236.62" y="189.07" width="19.6" height="19.6" fill="#d01c8b" /><rect x="258.4" y="189.07" width="19.6" height="19.6" fill="#d01c8b" /><rect x="62.39" y="210.85" width="19.6" height="19.6" fill="#d01c8b" /><rect x="84.17" y="210.85" width="19.6" height="19.6" fill="#d01c8b" /><rect x="105.94" y="210.85" width="19.6" height="19.6" fill="#d01c8b" /><rect x="127.72" y="210.85" width="19.6" height="19.6" fill="#d01c8b" /><rect x="149.5" y="210.85" width="19.6" height="19.6" fill="#d01c8b" /><rect x="171.28" y="210.85" width="19.6" height="19.6" fill="#d01c8b" /><rect x="193.06" y="210.85" width="19.6" height="19.6" fill="#d01c8b" /><rect x="214.84" y="210.85" width="19.6" height="19.6" fill="#d01c8b" /><rect x="236.62" y="210.85" width="19.6" height="19.6" fill="#d01c8b" /><rect x="258.4" y="210.85" width="19.6" height="19.6" fill="#d01c8b" /><rect x="62.39" y="232.62" width="19.6" height="19.6" fill="#d01c8b" /><rect x="84.17" y="232.62" width="19.6" height="19.6" fill="#d01c8b" /><rect x="105.94" y="232.62" width="19.6" height="19.6" fill="#d01c8b" /><rect x="127.72" y="232.62" width="19.6" height="19.6" fill="#d01c8b" /><rect x="149.5" y="232.62" width="19.6" height="19.6" fill="#d01c8b" /><rect x="171.28" y="232.62" width="19.6" height="19.6" fill="#d01c8b" /><rect x="193.06" y="232.62" width="19.6" height="19.6" fill="#d01c8b" /><rect x="214.84" y="232.62" width="19.6" height="19.6" fill="#d01c8b" /><rect x="236.62" y="232.62" width="19.6" height="19.6" fill="#d01c8b" /><rect x="258.4" y="232.62" width="19.6" height="19.6" fill="#d01c8b" /><rect x="62.39" y="254.4" width="19.6" height="19.6" fill="#b8b8b8" /><rect x="84.17" y="254.4" width="19.6" height="19.6" fill="#b8b8b8" /><rect x="105.94" y="254.4" width="19.6" height="19.6" fill="#b8b8b8" /><rect x="127.72" y="254.4" width="19.6" height="19.6" fill="#b8b8b8" /><rect x="149.5" y="254.4" width="19.6" height="19.6" fill="#b8b8b8" /><rect x="171.28" y="254.4" width="19.6" height="19.6" fill="#b8b8b8" /><rect x="193.06" y="254.4" width="19.6" height="19.6" fill="#b8b8b8" /><rect x="214.84" y="254.4" width="19.6" height="19.6" fill="#b8b8b8" /><rect x="236.62" y="254.4" width="19.6" height="19.6" fill="#b8b8b8" /><rect x="258.4" y="254.4" width="19.6" height="19.6" fill="#b8b8b8" /><rect x="62.39" y="276.18" width="19.6" height="19.6" fill="#b8b8b8" /><rect x="84.17" y="276.18" width="19.6" height="19.6" fill="#b8b8b8" /><rect x="105.94" y="276.18" width="19.6" height="19.6" fill="#b8b8b8" /><rect x="127.72" y="276.18" width="19.6" height="19.6" fill="#b8b8b8" /><rect x="149.5" y="276.18" width="19.6" height="19.6" fill="#b8b8b8" /><rect x="171.28" y="276.18" width="19.6" height="19.6" fill="#b8b8b8" /><rect x="193.06" y="276.18" width="19.6" height="19.6" fill="#b8b8b8" /><rect x="214.84" y="276.18" width="19.6" height="19.6" fill="#b8b8b8" /><rect x="236.62" y="276.18" width="19.6" height="19.6" fill="#b8b8b8" /><rect x="258.4" y="276.18" width="19.6" height="19.6" fill="#b8b8b8" /><rect x="284.09000000000003" y="36.95" width="106.91" height="68" fill="#ffffff" /><rect x="284.09000000000003" y="36.95" width="106.91" height="68" fill="none" stroke="#000000" stroke-width="1" /><text x="314.09000000000003" y="57.33" font-size="12" text-anchor="start">Completed</text><rect x="294.09000000000003" y="46.95" width="12" height="12" fill="#4dac26" /><text x="314.09000000000003" y="75.33" font-size="12" text-anchor="start">In Progress</text><rect x="294.09000000000003" y="64.95" width="12" height="12" fill="#d01c8b" /><text x="314.09000000000003" y="93.33" font-size="12" text-anchor="start">Pending</text><rect x="294.09000000000003" y="82.95" width="12" height="12" fill="#b8b8b8" /></svg>