<svg xmlns="http://www.w3.org/2000/svg" width="675.3000000000001" height="547.95" font-family="DejaVu Sans, Verdana, Liberation Sans, Arial, sans-serif" fill="black"><rect width="100%" height="100%" fill="white" /><text x="361.3" y="29.71" font-size="18" text-anchor="middle">Row clustering only</text><line x1="101.3" y1="83.95" x2="101.3" y2="157.95000000000002" stroke="#000000" stroke-width="1" /><line x1="101.3" y1="83.95" x2="161.3" y2="83.95" stroke="#000000" stroke-width="1" /><line x1="101.3" y1="157.95000000000002" x2="161.3" y2="157.95000000000002" stroke="#000000" stroke-width="1" /><line x1="131.3" y1="305.95" x2="131.3" y2="379.95" stroke="#000000" stroke-width="1" /><line x1="131.3" y1="305.95" x2="161.3" y2="305.95" stroke="#000000" stroke-width="1" /><line x1="131.3" y1="379.95" x2="161.3" y2="379.95" stroke="#000000" stroke-width="1" /><line x1="101.3" y1="231.95000000000002" x2="101.3" y2="342.95" stroke="#000000" stroke-width="1" /><line x1="101.3" y1="231.95000000000002" x2="161.3" y2="231.95000000000002" stroke="#000000" stroke-width="1" /><line x1="101.3" y1="342.95" x2="131.3" y2="342.95" stroke="#000000" stroke-width="1" /><line x1="71.3" y1="120.95" x2="71.3" y2="287.45" stroke="#000000" stroke-width="1" /><line x1="71.3" y1="120.95" x2="101.3" y2="120.95" stroke="#000000" stroke-width="1" /><line x1="71.3" y1="287.45" x2="101.3" y2="287.45" stroke="#000000" stroke-width="1" /><rect x="161.3" y="46.95" width="93.06" height="73.26" fill="#440154" /><rect x="255.3" y="46.95" width="93.06" height="73.26" fill="#aadb31" /><rect x="349.3" y="46.95" width="93.06" height="73.26" fill="#fde725" /><rect x="443.3" y="46.95" width="93.06" height="73.26" fill="#440154" /><rect x="537.3" y="46.95" width="93.06" height="73.26" fill="#472c7a" /><rect x="161.3" y="120.95" width="93.06" height="73.26" fill="#472c7a" /><rect x="255.3" y="120.95" width="93.06" height="73.26" fill="#fde725" /><rect x="349.3" y="120.95" width="93.06" height="73.26" fill="#aadb31" /><rect x="443.3" y="120.95" width="93.06" height="73.26" fill="#440154" /><rect x="537.3" y="120.95" width="93.06" height="73.26" fill="#440154" /><rect x="161.3" y="194.95000000000002" width="93.06" height="73.26" fill="#aadb31" /><rect x="255.3" y="194.95000000000002" width="93.06" height="73.26" fill="#440154" /><rect x="349.3" y="194.95000000000002" width="93.06" height="73.26" fill="#440154" /><rect x="443.3" y="194.95000000000002" width="93.06" height="73.26" fill="#472c7a" /><rect x="537.3" y="194.95000000000002" width="93.06" height="73.26" fill="#fde725" /><rect x="161.3" y="268.95" width="93.06" height="73.26" fill="#fde725" /><rect x="255.3" y="268.95" width="93.06" height="73.26" fill="#440154" /><rect x="349.3" y="268.95" width="93.06" height="73.26" fill="#472c7a" /><rect x="443.3" y="268.95" width="93.06" height="73.26" fill="#440154" /><rect x="537.3" y="268.95" width="93.06" height="73.26" fill="#aadb31" /><rect x="161.3" y="342.95" width="93.06" height="73.26" fill="#fde725" /><rect x="255.3" y="342.95" width="93.06" height="73.26" fill="#472c7a" /><rect x="349.3" y="342.95" width="93.06" height="73.26" fill="#440154" /><rect x="443.3" y="342.95" width="93.06" height="73.26" fill="#440154" /><rect x="537.3" y="342.95" width="93.06" height="73.26" fill="#aadb31" /><text x="637.3000000000001" y="88.33" font-size="12" text-anchor="start">B</text><text x="637.3000000000001" y="162.33" font-size="12" text-anchor="start">C</text><text x="637.3000000000001" y="236.33" font-size="12" text-anchor="start">D</text><text x="637.3000000000001" y="310.33" font-size="12" text-anchor="start">A</text><text x="637.3000000000001" y="384.33" font-size="12" text-anchor="start">E</text><text x="208.3" y="422.95" font-size="12" text-anchor="end" transform="rotate(-45,208.3,422.95)">X1</text><text x="302.3" y="422.95" font-size="12" text-anchor="end" transform="rotate(-45,302.3,422.95)">X2</text><text x="396.3" y="422.95" font-size="12" text-anchor="end" transform="rotate(-45,396.3,422.95)">X3</text><text x="490.3" y="422.95" font-size="12" text-anchor="end" transform="rotate(-45,490.3,422.95)">X4</text><text x="584.3000000000001" y="422.95" font-size="12" text-anchor="end" transform="rotate(-45,584.3000000000001,422.95)">X5</text></svg>