<svg xmlns="http://www.w3.org/2000/svg" width="678.47" height="547.95" font-family="DejaVu Sans, Verdana, Liberation Sans, Arial, sans-serif" fill="black"><rect width="100%" height="100%" fill="white" /><defs><clipPath id="kuva-clip-0"><rect x="61.300000000000004" y="46.95" width="600" height="450"/></clipPath></defs><line x1="161.3" y1="46.95" x2="161.3" y2="496.95" stroke="#cccccc" stroke-width="1" /><line x1="261.3" y1="46.95" x2="261.3" y2="496.95" stroke="#cccccc" stroke-width="1" /><line x1="361.3" y1="46.95" x2="361.3" y2="496.95" stroke="#cccccc" stroke-width="1" /><line x1="461.3" y1="46.95" x2="461.3" y2="496.95" stroke="#cccccc" stroke-width="1" /><line x1="561.3000000000001" y1="46.95" x2="561.3000000000001" y2="496.95" stroke="#cccccc" stroke-width="1" /><line x1="661.3000000000001" y1="46.95" x2="661.3000000000001" y2="496.95" stroke="#cccccc" stroke-width="1" /><line x1="61.300000000000004" y1="421.95" x2="661.3000000000001" y2="421.95" stroke="#cccccc" stroke-width="1" /><line x1="61.300000000000004" y1="346.95" x2="661.3000000000001" y2="346.95" stroke="#cccccc" stroke-width="1" /><line x1="61.300000000000004" y1="271.95" x2="661.3000000000001" y2="271.95" stroke="#cccccc" stroke-width="1" /><line x1="61.300000000000004" y1="196.95000000000002" x2="661.3000000000001" y2="196.95000000000002" stroke="#cccccc" stroke-width="1" /><line x1="61.300000000000004" y1="121.95" x2="661.3000000000001" y2="121.95" stroke="#cccccc" stroke-width="1" /><line x1="61.300000000000004" y1="46.95" x2="661.3000000000001" y2="46.95" stroke="#cccccc" stroke-width="1" /><line x1="61.300000000000004" y1="496.95" x2="661.3000000000001" y2="496.95" stroke="#000000" stroke-width="1" /><line x1="61.300000000000004" y1="46.95" x2="61.300000000000004" y2="496.95" stroke="#000000" stroke-width="1" /><line x1="61.300000000000004" y1="496.95" x2="61.300000000000004" y2="501.95" stroke="#000000" stroke-width="1" /><text x="61.300000000000004" y="513.09" font-size="12" text-anchor="middle">-3</text><line x1="161.3" y1="496.95" x2="161.3" y2="501.95" stroke="#000000" stroke-width="1" /><text x="161.3" y="513.09" font-size="12" text-anchor="middle">-2</text><line x1="261.3" y1="496.95" x2="261.3" y2="501.95" stroke="#000000" stroke-width="1" /><text x="261.3" y="513.09" font-size="12" text-anchor="middle">-1</text><line x1="361.3" y1="496.95" x2="361.3" y2="501.95" stroke="#000000" stroke-width="1" /><text x="361.3" y="513.09" font-size="12" text-anchor="middle">0</text><line x1="461.3" y1="496.95" x2="461.3" y2="501.95" stroke="#000000" stroke-width="1" /><text x="461.3" y="513.09" font-size="12" text-anchor="middle">1</text><line x1="561.3000000000001" y1="496.95" x2="561.3000000000001" y2="501.95" stroke="#000000" stroke-width="1" /><text x="561.3000000000001" y="513.09" font-size="12" text-anchor="middle">2</text><line x1="661.3000000000001" y1="496.95" x2="661.3000000000001" y2="501.95" stroke="#000000" stroke-width="1" /><text x="661.3000000000001" y="513.09" font-size="12" text-anchor="middle">3</text><line x1="56.300000000000004" y1="496.95" x2="61.300000000000004" y2="496.95" stroke="#000000" stroke-width="1" /><text x="53.300000000000004" y="501.33" font-size="12" text-anchor="end">-3</text><line x1="56.300000000000004" y1="421.95" x2="61.300000000000004" y2="421.95" stroke="#000000" stroke-width="1" /><text x="53.300000000000004" y="426.33" font-size="12" text-anchor="end">-2</text><line x1="56.300000000000004" y1="346.95" x2="61.300000000000004" y2="346.95" stroke="#000000" stroke-width="1" /><text x="53.300000000000004" y="351.33" font-size="12" text-anchor="end">-1</text><line x1="56.300000000000004" y1="271.95" x2="61.300000000000004" y2="271.95" stroke="#000000" stroke-width="1" /><text x="53.300000000000004" y="276.33" font-size="12" text-anchor="end">0</text><line x1="56.300000000000004" y1="196.95000000000002" x2="61.300000000000004" y2="196.95000000000002" stroke="#000000" stroke-width="1" /><text x="53.300000000000004" y="201.33" font-size="12" text-anchor="end">1</text><line x1="56.300000000000004" y1="121.95" x2="61.300000000000004" y2="121.95" stroke="#000000" stroke-width="1" /><text x="53.300000000000004" y="126.33" font-size="12" text-anchor="end">2</text><line x1="56.300000000000004" y1="46.95" x2="61.300000000000004" y2="46.95" stroke="#000000" stroke-width="1" /><text x="53.300000000000004" y="51.33" font-size="12" text-anchor="end">3</text><text x="361.3" y="540.95" font-size="14" text-anchor="middle">Theoretical Quantiles</text><text x="17.3" y="271.95" font-size="14" text-anchor="middle" transform="rotate(-90,17.3,271.95)">Sample Quantiles</text><text x="361.3" y="29.71" font-size="18" text-anchor="middle">Normal Q-Q</text><g clip-path="url(#kuva-clip-0)"><line x1="80.59" y1="475.85" x2="642" y2="65.04" stroke="#999999" stroke-width="1.5" stroke-dasharray="5,3" /><circle cx="80.59" cy="465.5" r="3" fill="#4682b4" /><circle cx="118.06" cy="447.55" r="3" fill="#4682b4" /><circle cx="137.16" cy="422.23" r="3" fill="#4682b4" /><circle cx="150.46" cy="411.57" r="3" fill="#4682b4" /><circle cx="160.83" cy="411.14" r="3" fill="#4682b4" /><circle cx="169.41" cy="409.03000000000003" r="3" fill="#4682b4" /><circle cx="176.77" cy="392.29" r="3" fill="#4682b4" /><circle cx="183.25" cy="388.31" r="3" fill="#4682b4" /><circle cx="189.06" cy="382.78000000000003" r="3" fill="#4682b4" /><circle cx="194.34" cy="382.55" r="3" fill="#4682b4" /><circle cx="199.19" cy="381.41" r="3" fill="#4682b4" /><circle cx="203.69" cy="378.78000000000003" r="3" fill="#4682b4" /><circle cx="207.88" cy="376.43" r="3" fill="#4682b4" /><circle cx="211.83" cy="376.12" r="3" fill="#4682b4" /><circle cx="215.55" cy="375.25" r="3" fill="#4682b4" /><circle cx="219.09" cy="375.15000000000003" r="3" fill="#4682b4" /><circle cx="222.45000000000002" cy="373.18" r="3" fill="#4682b4" /><circle cx="225.67000000000002" cy="372.73" r="3" fill="#4682b4" /><circle cx="228.75" cy="372.22" r="3" fill="#4682b4" /><circle cx="231.70000000000002" cy="368.3" r="3" fill="#4682b4" /><circle cx="234.55" cy="367.23" r="3" fill="#4682b4" /><circle cx="237.3" cy="366.17" r="3" fill="#4682b4" /><circle cx="239.96" cy="365.65000000000003" r="3" fill="#4682b4" /><circle cx="242.54" cy="365.5" r="3" fill="#4682b4" /><circle cx="245.04" cy="365.41" r="3" fill="#4682b4" /><circle cx="247.47" cy="365.41" r="3" fill="#4682b4" /><circle cx="249.83" cy="361.33" r="3" fill="#4682b4" /><circle cx="252.13" cy="356.03000000000003" r="3" fill="#4682b4" /><circle cx="254.38" cy="352.7" r="3" fill="#4682b4" /><circle cx="256.58" cy="351.09000000000003" r="3" fill="#4682b4" /><circle cx="258.72" cy="349.8" r="3" fill="#4682b4" /><circle cx="260.82" cy="345.09000000000003" r="3" fill="#4682b4" /><circle cx="262.87" cy="344.63" r="3" fill="#4682b4" /><circle cx="264.89" cy="344.16" r="3" fill="#4682b4" /><circle cx="266.86" cy="340.18" r="3" fill="#4682b4" /><circle cx="268.8" cy="339.22" r="3" fill="#4682b4" /><circle cx="270.71" cy="337.8" r="3" fill="#4682b4" /><circle cx="272.58" cy="337.6" r="3" fill="#4682b4" /><circle cx="274.42" cy="337.47" r="3" fill="#4682b4" /><circle cx="276.24" cy="333.02" r="3" fill="#4682b4" /><circle cx="278.02" cy="330.73" r="3" fill="#4682b4" /><circle cx="279.78000000000003" cy="329.26" r="3" fill="#4682b4" /><circle cx="281.52" cy="327.92" r="3" fill="#4682b4" /><circle cx="283.23" cy="323.8" r="3" fill="#4682b4" /><circle cx="284.92" cy="323.32" r="3" fill="#4682b4" /><circle cx="286.59000000000003" cy="321.98" r="3" fill="#4682b4" /><circle cx="288.23" cy="321.85" r="3" fill="#4682b4" /><circle cx="289.86" cy="321.84000000000003" r="3" fill="#4682b4" /><circle cx="291.47" cy="321.25" r="3" fill="#4682b4" /><circle cx="293.06" cy="319.96" r="3" fill="#4682b4" /><circle cx="294.63" cy="319.74" r="3" fill="#4682b4" /><circle cx="296.19" cy="317.67" r="3" fill="#4682b4" /><circle cx="297.73" cy="314.53000000000003" r="3" fill="#4682b4" /><circle cx="299.26" cy="314.12" r="3" fill="#4682b4" /><circle cx="300.77" cy="312.97" r="3" fill="#4682b4" /><circle cx="302.27" cy="312.65000000000003" r="3" fill="#4682b4" /><circle cx="303.75" cy="312.14" r="3" fill="#4682b4" /><circle cx="305.23" cy="311.81" r="3" fill="#4682b4" /><circle cx="306.69" cy="310.58" r="3" fill="#4682b4" /><circle cx="308.14" cy="302.54" r="3" fill="#4682b4" /><circle cx="309.57" cy="301.08" r="3" fill="#4682b4" /><circle cx="311" cy="301" r="3" fill="#4682b4" /><circle cx="312.42" cy="300.98" r="3" fill="#4682b4" /><circle cx="313.83" cy="300.8" r="3" fill="#4682b4" /><circle cx="315.22" cy="299.79" r="3" fill="#4682b4" /><circle cx="316.61" cy="299.66" r="3" fill="#4682b4" /><circle cx="317.99" cy="299.36" r="3" fill="#4682b4" /><circle cx="319.37" cy="299.22" r="3" fill="#4682b4" /><circle cx="320.73" cy="298.78000000000003" r="3" fill="#4682b4" /><circle cx="322.09000000000003" cy="298.52" r="3" fill="#4682b4" /><circle cx="323.44" cy="298.29" r="3" fill="#4682b4" /><circle cx="324.78000000000003" cy="298.12" r="3" fill="#4682b4" /><circle cx="326.12" cy="296.94" r="3" fill="#4682b4" /><circle cx="327.45" cy="294.25" r="3" fill="#4682b4" /><circle cx="328.77" cy="293.91" r="3" fill="#4682b4" /><circle cx="330.09000000000003" cy="293.90000000000003" r="3" fill="#4682b4" /><circle cx="331.40000000000003" cy="293.69" r="3" fill="#4682b4" /><circle cx="332.71" cy="292.90000000000003" r="3" fill="#4682b4" /><circle cx="334.02" cy="292.56" r="3" fill="#4682b4" /><circle cx="335.31" cy="291.15000000000003" r="3" fill="#4682b4" /><circle cx="336.61" cy="288.7" r="3" fill="#4682b4" /><circle cx="337.90000000000003" cy="288.21" r="3" fill="#4682b4" /><circle cx="339.19" cy="288.07" r="3" fill="#4682b4" /><circle cx="340.47" cy="287.25" r="3" fill="#4682b4" /><circle cx="341.75" cy="284.12" r="3" fill="#4682b4" /><circle cx="343.02" cy="283.46" r="3" fill="#4682b4" /><circle cx="344.3" cy="282.97" r="3" fill="#4682b4" /><circle cx="345.57" cy="282.85" r="3" fill="#4682b4" /><circle cx="346.83" cy="281.27" r="3" fill="#4682b4" /><circle cx="348.1" cy="280.48" r="3" fill="#4682b4" /><circle cx="349.36" cy="279.8" r="3" fill="#4682b4" /><circle cx="350.62" cy="279.75" r="3" fill="#4682b4" /><circle cx="351.88" cy="279.75" r="3" fill="#4682b4" /><circle cx="353.14" cy="276.21" r="3" fill="#4682b4" /><circle cx="354.40000000000003" cy="276.04" r="3" fill="#4682b4" /><circle cx="355.65000000000003" cy="275.14" r="3" fill="#4682b4" /><circle cx="356.91" cy="274.44" r="3" fill="#4682b4" /><circle cx="358.16" cy="270.37" r="3" fill="#4682b4" /><circle cx="359.42" cy="268.38" r="3" fill="#4682b4" /><circle cx="360.67" cy="268.33" r="3" fill="#4682b4" /><circle cx="361.92" cy="267.64" r="3" fill="#4682b4" /><circle cx="363.18" cy="266.59000000000003" r="3" fill="#4682b4" /><circle cx="364.43" cy="265.21" r="3" fill="#4682b4" /><circle cx="365.68" cy="264.67" r="3" fill="#4682b4" /><circle cx="366.94" cy="264.53000000000003" r="3" fill="#4682b4" /><circle cx="368.2" cy="263.89" r="3" fill="#4682b4" /><circle cx="369.45" cy="262.55" r="3" fill="#4682b4" /><circle cx="370.71" cy="261.63" r="3" fill="#4682b4" /><circle cx="371.97" cy="261.46" r="3" fill="#4682b4" /><circle cx="373.23" cy="261.32" r="3" fill="#4682b4" /><circle cx="374.49" cy="260.2" r="3" fill="#4682b4" /><circle cx="375.76" cy="258.01" r="3" fill="#4682b4" /><circle cx="377.03000000000003" cy="256.43" r="3" fill="#4682b4" /><circle cx="378.3" cy="255.82" r="3" fill="#4682b4" /><circle cx="379.57" cy="254.03" r="3" fill="#4682b4" /><circle cx="380.85" cy="253.19" r="3" fill="#4682b4" /><circle cx="382.13" cy="251.39000000000001" r="3" fill="#4682b4" /><circle cx="383.41" cy="251.31" r="3" fill="#4682b4" /><circle cx="384.69" cy="251.20000000000002" r="3" fill="#4682b4" /><circle cx="385.99" cy="250.87" r="3" fill="#4682b4" /><circle cx="387.28000000000003" cy="250.55" r="3" fill="#4682b4" /><circle cx="388.58" cy="249.32" r="3" fill="#4682b4" /><circle cx="389.88" cy="248.1" r="3" fill="#4682b4" /><circle cx="391.19" cy="248.05" r="3" fill="#4682b4" /><circle cx="392.5" cy="245.05" r="3" fill="#4682b4" /><circle cx="393.82" cy="244.59" r="3" fill="#4682b4" /><circle cx="395.15000000000003" cy="243.75" r="3" fill="#4682b4" /><circle cx="396.48" cy="242.92000000000002" r="3" fill="#4682b4" /><circle cx="397.81" cy="242.51" r="3" fill="#4682b4" /><circle cx="399.15000000000003" cy="242.43" r="3" fill="#4682b4" /><circle cx="400.5" cy="240.87" r="3" fill="#4682b4" /><circle cx="401.86" cy="238.67000000000002" r="3" fill="#4682b4" /><circle cx="403.23" cy="237.27" r="3" fill="#4682b4" /><circle cx="404.6" cy="237.12" r="3" fill="#4682b4" /><circle cx="405.98" cy="234.84" r="3" fill="#4682b4" /><circle cx="407.37" cy="233.21" r="3" fill="#4682b4" /><circle cx="408.77" cy="232.87" r="3" fill="#4682b4" /><circle cx="410.17" cy="232.34" r="3" fill="#4682b4" /><circle cx="411.59000000000003" cy="232.15" r="3" fill="#4682b4" /><circle cx="413.02" cy="231.19" r="3" fill="#4682b4" /><circle cx="414.46000000000004" cy="228.79" r="3" fill="#4682b4" /><circle cx="415.91" cy="228.5" r="3" fill="#4682b4" /><circle cx="417.37" cy="228.06" r="3" fill="#4682b4" /><circle cx="418.84000000000003" cy="226.59" r="3" fill="#4682b4" /><circle cx="420.33" cy="223.27" r="3" fill="#4682b4" /><circle cx="421.82" cy="223.11" r="3" fill="#4682b4" /><circle cx="423.34000000000003" cy="222.69" r="3" fill="#4682b4" /><circle cx="424.86" cy="222.38" r="3" fill="#4682b4" /><circle cx="426.40000000000003" cy="221.8" r="3" fill="#4682b4" /><circle cx="427.96000000000004" cy="221.59" r="3" fill="#4682b4" /><circle cx="429.53000000000003" cy="219.59" r="3" fill="#4682b4" /><circle cx="431.13" cy="217.81" r="3" fill="#4682b4" /><circle cx="432.73" cy="217.31" r="3" fill="#4682b4" /><circle cx="434.36" cy="216.68" r="3" fill="#4682b4" /><circle cx="436.01" cy="215.3" r="3" fill="#4682b4" /><circle cx="437.67" cy="214.02" r="3" fill="#4682b4" /><circle cx="439.36" cy="213.35" r="3" fill="#4682b4" /><circle cx="441.07" cy="213.01" r="3" fill="#4682b4" /><circle cx="442.81" cy="212.87" r="3" fill="#4682b4" /><circle cx="444.57" cy="212.75" r="3" fill="#4682b4" /><circle cx="446.36" cy="211.62" r="3" fill="#4682b4" /><circle cx="448.17" cy="211.08" r="3" fill="#4682b4" /><circle cx="450.01" cy="209.76" r="3" fill="#4682b4" /><circle cx="451.88" cy="209.37" r="3" fill="#4682b4" /><circle cx="453.79" cy="208.86" r="3" fill="#4682b4" /><circle cx="455.73" cy="208.55" r="3" fill="#4682b4" /><circle cx="457.71000000000004" cy="208.47" r="3" fill="#4682b4" /><circle cx="459.72" cy="207.83" r="3" fill="#4682b4" /><circle cx="461.78000000000003" cy="207.22" r="3" fill="#4682b4" /><circle cx="463.87" cy="205.26" r="3" fill="#4682b4" /><circle cx="466.02" cy="205.17000000000002" r="3" fill="#4682b4" /><circle cx="468.21000000000004" cy="203.87" r="3" fill="#4682b4" /><circle cx="470.46000000000004" cy="203.42000000000002" r="3" fill="#4682b4" /><circle cx="472.76" cy="202.73000000000002" r="3" fill="#4682b4" /><circle cx="475.13" cy="201.27" r="3" fill="#4682b4" /><circle cx="477.55" cy="201.23000000000002" r="3" fill="#4682b4" /><circle cx="480.05" cy="200.43" r="3" fill="#4682b4" /><circle cx="482.63" cy="195.66" r="3" fill="#4682b4" /><circle cx="485.29" cy="192.05" r="3" fill="#4682b4" /><circle cx="488.04" cy="187.86" r="3" fill="#4682b4" /><circle cx="490.89" cy="185.25" r="3" fill="#4682b4" /><circle cx="493.85" cy="183.65" r="3" fill="#4682b4" /><circle cx="496.93" cy="179.69" r="3" fill="#4682b4" /><circle cx="500.14" cy="178.71" r="3" fill="#4682b4" /><circle cx="503.51" cy="175.58" r="3" fill="#4682b4" /><circle cx="507.04" cy="166.37" r="3" fill="#4682b4" /><circle cx="510.76" cy="165.70000000000002" r="3" fill="#4682b4" /><circle cx="514.71" cy="164.76" r="3" fill="#4682b4" /><circle cx="518.91" cy="163.1" r="3" fill="#4682b4" /><circle cx="523.41" cy="138.9" r="3" fill="#4682b4" /><circle cx="528.26" cy="137" r="3" fill="#4682b4" /><circle cx="533.54" cy="130.82" r="3" fill="#4682b4" /><circle cx="539.34" cy="127.74000000000001" r="3" fill="#4682b4" /><circle cx="545.82" cy="125.42" r="3" fill="#4682b4" /><circle cx="553.1800000000001" cy="120.69" r="3" fill="#4682b4" /><circle cx="561.76" cy="119.5" r="3" fill="#4682b4" /><circle cx="572.13" cy="117.63" r="3" fill="#4682b4" /><circle cx="585.44" cy="113.18" r="3" fill="#4682b4" /><circle cx="604.53" cy="88.91" r="3" fill="#4682b4" /><circle cx="642" cy="88.18" r="3" fill="#4682b4" /></g></svg>