<svg xmlns="http://www.w3.org/2000/svg" width="678.47" height="547.95" font-family="DejaVu Sans, Verdana, Liberation Sans, Arial, sans-serif" fill="black"><rect width="100%" height="100%" fill="white" /><defs><clipPath id="kuva-clip-0"><rect x="61.300000000000004" y="46.95" width="600" height="450"/></clipPath></defs><line x1="181.3" y1="46.95" x2="181.3" y2="496.95" stroke="#cccccc" stroke-width="1" /><line x1="301.3" y1="46.95" x2="301.3" y2="496.95" stroke="#cccccc" stroke-width="1" /><line x1="421.3" y1="46.95" x2="421.3" y2="496.95" stroke="#cccccc" stroke-width="1" /><line x1="541.3" y1="46.95" x2="541.3" y2="496.95" stroke="#cccccc" stroke-width="1" /><line x1="661.3000000000001" y1="46.95" x2="661.3000000000001" y2="496.95" stroke="#cccccc" stroke-width="1" /><line x1="61.300000000000004" y1="406.95" x2="661.3000000000001" y2="406.95" stroke="#cccccc" stroke-width="1" /><line x1="61.300000000000004" y1="316.95" x2="661.3000000000001" y2="316.95" stroke="#cccccc" stroke-width="1" /><line x1="61.300000000000004" y1="226.95000000000002" x2="661.3000000000001" y2="226.95000000000002" stroke="#cccccc" stroke-width="1" /><line x1="61.300000000000004" y1="136.95000000000002" x2="661.3000000000001" y2="136.95000000000002" stroke="#cccccc" stroke-width="1" /><line x1="61.300000000000004" y1="46.95" x2="661.3000000000001" y2="46.95" stroke="#cccccc" stroke-width="1" /><line x1="61.300000000000004" y1="496.95" x2="661.3000000000001" y2="496.95" stroke="#000000" stroke-width="1" /><line x1="61.300000000000004" y1="46.95" x2="61.300000000000004" y2="496.95" stroke="#000000" stroke-width="1" /><line x1="61.300000000000004" y1="496.95" x2="61.300000000000004" y2="501.95" stroke="#000000" stroke-width="1" /><text x="61.300000000000004" y="513.09" font-size="12" text-anchor="middle">0</text><line x1="181.3" y1="496.95" x2="181.3" y2="501.95" stroke="#000000" stroke-width="1" /><text x="181.3" y="513.09" font-size="12" text-anchor="middle">2</text><line x1="301.3" y1="496.95" x2="301.3" y2="501.95" stroke="#000000" stroke-width="1" /><text x="301.3" y="513.09" font-size="12" text-anchor="middle">4</text><line x1="421.3" y1="496.95" x2="421.3" y2="501.95" stroke="#000000" stroke-width="1" /><text x="421.3" y="513.09" font-size="12" text-anchor="middle">6</text><line x1="541.3" y1="496.95" x2="541.3" y2="501.95" stroke="#000000" stroke-width="1" /><text x="541.3" y="513.09" font-size="12" text-anchor="middle">8</text><line x1="661.3000000000001" y1="496.95" x2="661.3000000000001" y2="501.95" stroke="#000000" stroke-width="1" /><text x="661.3000000000001" y="513.09" font-size="12" text-anchor="middle">10</text><line x1="56.300000000000004" y1="496.95" x2="61.300000000000004" y2="496.95" stroke="#000000" stroke-width="1" /><text x="53.300000000000004" y="501.33" font-size="12" text-anchor="end">0</text><line x1="56.300000000000004" y1="406.95" x2="61.300000000000004" y2="406.95" stroke="#000000" stroke-width="1" /><text x="53.300000000000004" y="411.33" font-size="12" text-anchor="end">2</text><line x1="56.300000000000004" y1="316.95" x2="61.300000000000004" y2="316.95" stroke="#000000" stroke-width="1" /><text x="53.300000000000004" y="321.33" font-size="12" text-anchor="end">4</text><line x1="56.300000000000004" y1="226.95000000000002" x2="61.300000000000004" y2="226.95000000000002" stroke="#000000" stroke-width="1" /><text x="53.300000000000004" y="231.33" font-size="12" text-anchor="end">6</text><line x1="56.300000000000004" y1="136.95000000000002" x2="61.300000000000004" y2="136.95000000000002" stroke="#000000" stroke-width="1" /><text x="53.300000000000004" y="141.33" font-size="12" text-anchor="end">8</text><line x1="56.300000000000004" y1="46.95" x2="61.300000000000004" y2="46.95" stroke="#000000" stroke-width="1" /><text x="53.300000000000004" y="51.33" font-size="12" text-anchor="end">10</text><text x="361.3" y="540.95" font-size="14" text-anchor="middle">X</text><text x="17.3" y="271.95" font-size="14" text-anchor="middle" transform="rotate(-90,17.3,271.95)">Y</text><text x="361.3" y="29.71" font-size="18" text-anchor="middle">Scatter Plot</text><g clip-path="url(#kuva-clip-0)"><circle cx="91.3" cy="442.95" r="5" fill="#4682b4" /><circle cx="145.3" cy="357.45" r="5" fill="#4682b4" /><circle cx="187.3" cy="388.95" r="5" fill="#4682b4" /><circle cx="259.3" cy="271.95" r="5" fill="#4682b4" /><circle cx="301.3" cy="303.45" r="5" fill="#4682b4" /><circle cx="373.3" cy="190.95000000000002" r="5" fill="#4682b4" /><circle cx="427.3" cy="226.95000000000002" r="5" fill="#4682b4" /><circle cx="481.3" cy="114.45" r="5" fill="#4682b4" /><circle cx="565.3000000000001" cy="141.45000000000002" r="5" fill="#4682b4" /><circle cx="607.3000000000001" cy="55.95" r="5" fill="#4682b4" /></g></svg>