<svg xmlns="http://www.w3.org/2000/svg" width="675.3000000000001" height="547.95" font-family="DejaVu Sans, Verdana, Liberation Sans, Arial, sans-serif" fill="black"><rect width="100%" height="100%" fill="white" /><defs><clipPath id="kuva-clip-6"><rect x="61.300000000000004" y="46.95" width="600" height="450"/></clipPath></defs><line x1="205.01" y1="46.95" x2="205.01" y2="496.95" stroke="#cccccc" stroke-width="1" /><line x1="348.72" y1="46.95" x2="348.72" y2="496.95" stroke="#cccccc" stroke-width="1" /><line x1="492.43" y1="46.95" x2="492.43" y2="496.95" stroke="#cccccc" stroke-width="1" /><line x1="636.15" y1="46.95" x2="636.15" y2="496.95" stroke="#cccccc" stroke-width="1" /><line x1="61.300000000000004" y1="418.06" x2="661.3000000000001" y2="418.06" stroke="#cccccc" stroke-width="1" /><line x1="61.300000000000004" y1="301.17" x2="661.3000000000001" y2="301.17" stroke="#cccccc" stroke-width="1" /><line x1="61.300000000000004" y1="184.29" x2="661.3000000000001" y2="184.29" stroke="#cccccc" stroke-width="1" /><line x1="61.300000000000004" y1="67.41" x2="661.3000000000001" y2="67.41" stroke="#cccccc" stroke-width="1" /><line x1="61.300000000000004" y1="496.95" x2="661.3000000000001" y2="496.95" stroke="#000000" stroke-width="1" /><line x1="61.300000000000004" y1="46.95" x2="61.300000000000004" y2="496.95" stroke="#000000" stroke-width="1" /><line x1="61.300000000000004" y1="496.95" x2="61.300000000000004" y2="501.95" stroke="#000000" stroke-width="1" /><text x="61.300000000000004" y="513.09" font-size="12" text-anchor="middle">0</text><line x1="205.01" y1="496.95" x2="205.01" y2="501.95" stroke="#000000" stroke-width="1" /><text x="205.01" y="513.09" font-size="12" text-anchor="middle">2</text><line x1="348.72" y1="496.95" x2="348.72" y2="501.95" stroke="#000000" stroke-width="1" /><text x="348.72" y="513.09" font-size="12" text-anchor="middle">4</text><line x1="492.43" y1="496.95" x2="492.43" y2="501.95" stroke="#000000" stroke-width="1" /><text x="492.43" y="513.09" font-size="12" text-anchor="middle">6</text><line x1="636.15" y1="496.95" x2="636.15" y2="501.95" stroke="#000000" stroke-width="1" /><text x="636.15" y="513.09" font-size="12" text-anchor="middle">8</text><line x1="56.300000000000004" y1="418.06" x2="61.300000000000004" y2="418.06" stroke="#000000" stroke-width="1" /><text x="53.300000000000004" y="422.43" font-size="12" text-anchor="end">2</text><line x1="56.300000000000004" y1="301.17" x2="61.300000000000004" y2="301.17" stroke="#000000" stroke-width="1" /><text x="53.300000000000004" y="305.55" font-size="12" text-anchor="end">3</text><line x1="56.300000000000004" y1="184.29" x2="61.300000000000004" y2="184.29" stroke="#000000" stroke-width="1" /><text x="53.300000000000004" y="188.66" font-size="12" text-anchor="end">4</text><line x1="56.300000000000004" y1="67.41" x2="61.300000000000004" y2="67.41" stroke="#000000" stroke-width="1" /><text x="53.300000000000004" y="71.78" font-size="12" text-anchor="end">5</text><text x="361.3" y="540.95" font-size="14" text-anchor="middle">X</text><text x="17.3" y="271.95" font-size="14" text-anchor="middle" transform="rotate(-90,17.3,271.95)">Y</text><text x="361.3" y="29.71" font-size="18" text-anchor="middle">Per-Point Colors</text><g clip-path="url(#kuva-clip-6)"><circle cx="133.15" cy="476.5" r="6" fill="#4682b4" /><circle cx="169.08" cy="418.06" r="6" fill="#4682b4" /><circle cx="205.01" cy="441.43" r="6" fill="#4682b4" /><circle cx="348.72" cy="125.85000000000001" r="6" fill="#dc143c" /><circle cx="384.65000000000003" cy="67.41" r="6" fill="#dc143c" /><circle cx="420.58" cy="90.78" r="6" fill="#dc143c" /><circle cx="564.29" cy="418.06" r="6" fill="#2e8b57" /><circle cx="600.22" cy="359.62" r="6" fill="#2e8b57" /><circle cx="636.15" cy="394.68" r="6" fill="#2e8b57" /></g></svg>