<svg xmlns="http://www.w3.org/2000/svg" width="786.13" height="547.95" font-family="DejaVu Sans, Verdana, Liberation Sans, Arial, sans-serif" fill="black"><rect width="100%" height="100%" fill="white" /><text x="361.3" y="29.71" font-size="18" text-anchor="middle">Soil texture — semi-transparent markers (400 pts)</text><path d="M 186.71,379.35 L 535.89,379.35" stroke="#cccccc" stroke-width="1" fill="none" stroke-dasharray="3,3" /><path d="M 317.65000000000003,152.55 L 492.24,454.95" stroke="#cccccc" stroke-width="1" fill="none" stroke-dasharray="3,3" /><path d="M 404.95,152.55 L 230.36,454.95" stroke="#cccccc" stroke-width="1" fill="none" stroke-dasharray="3,3" /><path d="M 230.36,303.75 L 492.24,303.75" stroke="#cccccc" stroke-width="1" fill="none" stroke-dasharray="3,3" /><path d="M 274,228.15 L 404.95,454.95" stroke="#cccccc" stroke-width="1" fill="none" stroke-dasharray="3,3" /><path d="M 448.6,228.15 L 317.65000000000003,454.95" stroke="#cccccc" stroke-width="1" fill="none" stroke-dasharray="3,3" /><path d="M 274,228.15 L 448.6,228.15" stroke="#cccccc" stroke-width="1" fill="none" stroke-dasharray="3,3" /><path d="M 230.36,303.75 L 317.65000000000003,454.95" stroke="#cccccc" stroke-width="1" fill="none" stroke-dasharray="3,3" /><path d="M 492.24,303.75 L 404.95,454.95" stroke="#cccccc" stroke-width="1" fill="none" stroke-dasharray="3,3" /><path d="M 317.65000000000003,152.55 L 404.95,152.55" stroke="#cccccc" stroke-width="1" fill="none" stroke-dasharray="3,3" /><path d="M 186.71,379.35 L 230.36,454.95" stroke="#cccccc" stroke-width="1" fill="none" stroke-dasharray="3,3" /><path d="M 535.89,379.35 L 492.24,454.95" stroke="#cccccc" stroke-width="1" fill="none" stroke-dasharray="3,3" /><path d="M 361.3,76.95 L 143.06,454.95 L 579.54,454.95 Z" stroke="#000000" stroke-width="1" fill="none" /><text x="135.06" y="458.95" font-size="12" text-anchor="end">0%</text><text x="369.3" y="80.95" font-size="12" text-anchor="start">0%</text><text x="579.54" y="470.95" font-size="12" text-anchor="middle">0%</text><text x="178.71" y="383.35" font-size="12" text-anchor="end">20%</text><text x="412.95" y="156.55" font-size="12" text-anchor="start">20%</text><text x="492.24" y="470.95" font-size="12" text-anchor="middle">20%</text><text x="222.36" y="307.75" font-size="12" text-anchor="end">40%</text><text x="456.6" y="232.15" font-size="12" text-anchor="start">40%</text><text x="404.95" y="470.95" font-size="12" text-anchor="middle">40%</text><text x="266" y="232.15" font-size="12" text-anchor="end">60%</text><text x="500.24" y="307.75" font-size="12" text-anchor="start">60%</text><text x="317.65000000000003" y="470.95" font-size="12" text-anchor="middle">60%</text><text x="309.65000000000003" y="156.55" font-size="12" text-anchor="end">80%</text><text x="543.89" y="383.35" font-size="12" text-anchor="start">80%</text><text x="230.36" y="470.95" font-size="12" text-anchor="middle">80%</text><text x="353.3" y="80.95" font-size="12" text-anchor="end">100%</text><text x="587.54" y="458.95" font-size="12" text-anchor="start">100%</text><text x="143.06" y="470.95" font-size="12" text-anchor="middle">100%</text><text x="361.3" y="50.550000000000004" font-size="12" text-anchor="middle" font-weight="bold">Sand</text><text x="121.46000000000001" y="481.35" font-size="12" text-anchor="end" font-weight="bold">Silt</text><text x="601.14" y="481.35" font-size="12" text-anchor="start" font-weight="bold">Clay</text><circle cx="346.1" cy="208" r="5" fill="#1f77b4" fill-opacity="0.3" stroke="#1f77b4" stroke-width="0.8" /><circle cx="341.76" cy="146.58" r="5" fill="#1f77b4" fill-opacity="0.3" stroke="#1f77b4" stroke-width="0.8" /><circle cx="375.77" cy="171.87" r="5" fill="#1f77b4" fill-opacity="0.3" stroke="#1f77b4" stroke-width="0.8" /><circle cx="333.14" cy="214.36" r="5" fill="#1f77b4" fill-opacity="0.3" stroke="#1f77b4" stroke-width="0.8" /><circle cx="339.25" cy="208.57" r="5" fill="#1f77b4" fill-opacity="0.3" stroke="#1f77b4" stroke-width="0.8" /><circle cx="353.66" cy="233.98000000000002" r="5" fill="#1f77b4" fill-opacity="0.3" stroke="#1f77b4" stroke-width="0.8" /><circle cx="350.46" cy="185.19" r="5" fill="#1f77b4" fill-opacity="0.3" stroke="#1f77b4" stroke-width="0.8" /><circle cx="351.16" cy="225.77" r="5" fill="#1f77b4" fill-opacity="0.3" stroke="#1f77b4" stroke-width="0.8" /><circle cx="361.01" cy="176.85" r="5" fill="#1f77b4" fill-opacity="0.3" stroke="#1f77b4" stroke-width="0.8" /><circle cx="338.85" cy="127.06" r="5" fill="#1f77b4" fill-opacity="0.3" stroke="#1f77b4" stroke-width="0.8" /><circle cx="320.85" cy="202.99" r="5" fill="#1f77b4" fill-opacity="0.3" stroke="#1f77b4" stroke-width="0.8" /><circle cx="370.83" cy="200.98000000000002" r="5" fill="#1f77b4" fill-opacity="0.3" stroke="#1f77b4" stroke-width="0.8" /><circle cx="346.17" cy="165.51" r="5" fill="#1f77b4" fill-opacity="0.3" stroke="#1f77b4" stroke-width="0.8" /><circle cx="333.66" cy="239.99" r="5" fill="#1f77b4" fill-opacity="0.3" stroke="#1f77b4" stroke-width="0.8" /><circle cx="368.44" cy="184.17000000000002" r="5" fill="#1f77b4" fill-opacity="0.3" stroke="#1f77b4" stroke-width="0.8" /><circle cx="347.37" cy="134.16" r="5" fill="#1f77b4" fill-opacity="0.3" stroke="#1f77b4" stroke-width="0.8" /><circle cx="347.26" cy="187.78" r="5" fill="#1f77b4" fill-opacity="0.3" stroke="#1f77b4" stroke-width="0.8" /><circle cx="360.67" cy="223.97" r="5" fill="#1f77b4" fill-opacity="0.3" stroke="#1f77b4" stroke-width="0.8" /><circle cx="309.90000000000003" cy="215.05" r="5" fill="#1f77b4" fill-opacity="0.3" stroke="#1f77b4" stroke-width="0.8" /><circle cx="319.45" cy="194.78" r="5" fill="#1f77b4" fill-opacity="0.3" stroke="#1f77b4" stroke-width="0.8" /><circle cx="361.71" cy="163.81" r="5" fill="#1f77b4" fill-opacity="0.3" stroke="#1f77b4" stroke-width="0.8" /><circle cx="350.07" cy="195.5" r="5" fill="#1f77b4" fill-opacity="0.3" stroke="#1f77b4" stroke-width="0.8" /><circle cx="338.06" cy="135.34" r="5" fill="#1f77b4" fill-opacity="0.3" stroke="#1f77b4" stroke-width="0.8" /><circle cx="319.69" cy="149.01" r="5" fill="#1f77b4" fill-opacity="0.3" stroke="#1f77b4" stroke-width="0.8" /><circle cx="340.3" cy="203.08" r="5" fill="#1f77b4" fill-opacity="0.3" stroke="#1f77b4" stroke-width="0.8" /><circle cx="327.27" cy="189.54" r="5" fill="#1f77b4" fill-opacity="0.3" stroke="#1f77b4" stroke-width="0.8" /><circle cx="352.07" cy="201.8" r="5" fill="#1f77b4" fill-opacity="0.3" stroke="#1f77b4" stroke-width="0.8" /><circle cx="357.57" cy="126.55" r="5" fill="#1f77b4" fill-opacity="0.3" stroke="#1f77b4" stroke-width="0.8" /><circle cx="316.23" cy="182.73" r="5" fill="#1f77b4" fill-opacity="0.3" stroke="#1f77b4" stroke-width="0.8" /><circle cx="323.21" cy="142.92000000000002" r="5" fill="#1f77b4" fill-opacity="0.3" stroke="#1f77b4" stroke-width="0.8" /><circle cx="347.32" cy="171.04" r="5" fill="#1f77b4" fill-opacity="0.3" stroke="#1f77b4" stroke-width="0.8" /><circle cx="332.91" cy="157.4" r="5" fill="#1f77b4" fill-opacity="0.3" stroke="#1f77b4" stroke-width="0.8" /><circle cx="335.90000000000003" cy="214.34" r="5" fill="#1f77b4" fill-opacity="0.3" stroke="#1f77b4" stroke-width="0.8" /><circle cx="359.87" cy="188.58" r="5" fill="#1f77b4" fill-opacity="0.3" stroke="#1f77b4" stroke-width="0.8" /><circle cx="335.17" cy="231.59" r="5" fill="#1f77b4" fill-opacity="0.3" stroke="#1f77b4" stroke-width="0.8" /><circle cx="345.96" cy="161.08" r="5" fill="#1f77b4" fill-opacity="0.3" stroke="#1f77b4" stroke-width="0.8" /><circle cx="334.01" cy="164.65" r="5" fill="#1f77b4" fill-opacity="0.3" stroke="#1f77b4" stroke-width="0.8" /><circle cx="374.21" cy="201.68" r="5" fill="#1f77b4" fill-opacity="0.3" stroke="#1f77b4" stroke-width="0.8" /><circle cx="311.68" cy="199.42000000000002" r="5" fill="#1f77b4" fill-opacity="0.3" stroke="#1f77b4" stroke-width="0.8" /><circle cx="346.22" cy="217.68" r="5" fill="#1f77b4" fill-opacity="0.3" stroke="#1f77b4" stroke-width="0.8" /><circle cx="323.92" cy="141.69" r="5" fill="#1f77b4" fill-opacity="0.3" stroke="#1f77b4" stroke-width="0.8" /><circle cx="342.28000000000003" cy="189.45000000000002" r="5" fill="#1f77b4" fill-opacity="0.3" stroke="#1f77b4" stroke-width="0.8" /><circle cx="325.05" cy="170.73" r="5" fill="#1f77b4" fill-opacity="0.3" stroke="#1f77b4" stroke-width="0.8" /><circle cx="329.22" cy="132.52" r="5" fill="#1f77b4" fill-opacity="0.3" stroke="#1f77b4" stroke-width="0.8" /><circle cx="343.31" cy="191.21" r="5" fill="#1f77b4" fill-opacity="0.3" stroke="#1f77b4" stroke-width="0.8" /><circle cx="340.46" cy="203.97" r="5" fill="#1f77b4" fill-opacity="0.3" stroke="#1f77b4" stroke-width="0.8" /><circle cx="349.65000000000003" cy="157.02" r="5" fill="#1f77b4" fill-opacity="0.3" stroke="#1f77b4" stroke-width="0.8" /><circle cx="342.95" cy="170.95000000000002" r="5" fill="#1f77b4" fill-opacity="0.3" stroke="#1f77b4" stroke-width="0.8" /><circle cx="344.7" cy="191.20000000000002" r="5" fill="#1f77b4" fill-opacity="0.3" stroke="#1f77b4" stroke-width="0.8" /><circle cx="347.42" cy="154.71" r="5" fill="#1f77b4" fill-opacity="0.3" stroke="#1f77b4" stroke-width="0.8" /><circle cx="355.03000000000003" cy="174.84" r="5" fill="#1f77b4" fill-opacity="0.3" stroke="#1f77b4" stroke-width="0.8" /><circle cx="357.59000000000003" cy="198.75" r="5" fill="#1f77b4" fill-opacity="0.3" stroke="#1f77b4" stroke-width="0.8" /><circle cx="351.53000000000003" cy="186.89000000000001" r="5" fill="#1f77b4" fill-opacity="0.3" stroke="#1f77b4" stroke-width="0.8" /><circle cx="366.13" cy="201.81" r="5" fill="#1f77b4" fill-opacity="0.3" stroke="#1f77b4" stroke-width="0.8" /><circle cx="342.84000000000003" cy="108.92" r="5" fill="#1f77b4" fill-opacity="0.3" stroke="#1f77b4" stroke-width="0.8" /><circle cx="308.83" cy="220.21" r="5" fill="#1f77b4" fill-opacity="0.3" stroke="#1f77b4" stroke-width="0.8" /><circle cx="368.69" cy="196.74" r="5" fill="#1f77b4" fill-opacity="0.3" stroke="#1f77b4" stroke-width="0.8" /><circle cx="315.95" cy="158.04" r="5" fill="#1f77b4" fill-opacity="0.3" stroke="#1f77b4" stroke-width="0.8" /><circle cx="346.11" cy="206.37" r="5" fill="#1f77b4" fill-opacity="0.3" stroke="#1f77b4" stroke-width="0.8" /><circle cx="376.83" cy="180.81" r="5" fill="#1f77b4" fill-opacity="0.3" stroke="#1f77b4" stroke-width="0.8" /><circle cx="315.99" cy="190.29" r="5" fill="#1f77b4" fill-opacity="0.3" stroke="#1f77b4" stroke-width="0.8" /><circle cx="345.95" cy="205.91" r="5" fill="#1f77b4" fill-opacity="0.3" stroke="#1f77b4" stroke-width="0.8" /><circle cx="339.86" cy="175.71" r="5" fill="#1f77b4" fill-opacity="0.3" stroke="#1f77b4" stroke-width="0.8" /><circle cx="374.29" cy="191.3" r="5" fill="#1f77b4" fill-opacity="0.3" stroke="#1f77b4" stroke-width="0.8" /><circle cx="334.2" cy="241.44" r="5" fill="#1f77b4" fill-opacity="0.3" stroke="#1f77b4" stroke-width="0.8" /><circle cx="358.75" cy="209.8" r="5" fill="#1f77b4" fill-opacity="0.3" stroke="#1f77b4" stroke-width="0.8" /><circle cx="302.77" cy="178.33" r="5" fill="#1f77b4" fill-opacity="0.3" stroke="#1f77b4" stroke-width="0.8" /><circle cx="349.55" cy="185.18" r="5" fill="#1f77b4" fill-opacity="0.3" stroke="#1f77b4" stroke-width="0.8" /><circle cx="363.05" cy="193.97" r="5" fill="#1f77b4" fill-opacity="0.3" stroke="#1f77b4" stroke-width="0.8" /><circle cx="349.86" cy="217.33" r="5" fill="#1f77b4" fill-opacity="0.3" stroke="#1f77b4" stroke-width="0.8" /><circle cx="364.47" cy="215.41" r="5" fill="#1f77b4" fill-opacity="0.3" stroke="#1f77b4" stroke-width="0.8" /><circle cx="336.62" cy="230.23000000000002" r="5" fill="#1f77b4" fill-opacity="0.3" stroke="#1f77b4" stroke-width="0.8" /><circle cx="320.69" cy="183.99" r="5" fill="#1f77b4" fill-opacity="0.3" stroke="#1f77b4" stroke-width="0.8" /><circle cx="364.55" cy="169.31" r="5" fill="#1f77b4" fill-opacity="0.3" stroke="#1f77b4" stroke-width="0.8" /><circle cx="314.21" cy="171.4" r="5" fill="#1f77b4" fill-opacity="0.3" stroke="#1f77b4" stroke-width="0.8" /><circle cx="372.44" cy="212.5" r="5" fill="#1f77b4" fill-opacity="0.3" stroke="#1f77b4" stroke-width="0.8" /><circle cx="322.45" cy="196.37" r="5" fill="#1f77b4" fill-opacity="0.3" stroke="#1f77b4" stroke-width="0.8" /><circle cx="356.55" cy="130.36" r="5" fill="#1f77b4" fill-opacity="0.3" stroke="#1f77b4" stroke-width="0.8" /><circle cx="299.11" cy="201.5" r="5" fill="#1f77b4" fill-opacity="0.3" stroke="#1f77b4" stroke-width="0.8" /><circle cx="382.63" cy="154.19" r="5" fill="#1f77b4" fill-opacity="0.3" stroke="#1f77b4" stroke-width="0.8" /><circle cx="340.8" cy="198.74" r="5" fill="#1f77b4" fill-opacity="0.3" stroke="#1f77b4" stroke-width="0.8" /><circle cx="337.99" cy="201.4" r="5" fill="#1f77b4" fill-opacity="0.3" stroke="#1f77b4" stroke-width="0.8" /><circle cx="338.39" cy="203.67000000000002" r="5" fill="#1f77b4" fill-opacity="0.3" stroke="#1f77b4" stroke-width="0.8" /><circle cx="350.49" cy="168.62" r="5" fill="#1f77b4" fill-opacity="0.3" stroke="#1f77b4" stroke-width="0.8" /><circle cx="329.09000000000003" cy="205.59" r="5" fill="#1f77b4" fill-opacity="0.3" stroke="#1f77b4" stroke-width="0.8" /><circle cx="321.23" cy="146.36" r="5" fill="#1f77b4" fill-opacity="0.3" stroke="#1f77b4" stroke-width="0.8" /><circle cx="334.86" cy="146.54" r="5" fill="#1f77b4" fill-opacity="0.3" stroke="#1f77b4" stroke-width="0.8" /><circle cx="366.74" cy="181.56" r="5" fill="#1f77b4" fill-opacity="0.3" stroke="#1f77b4" stroke-width="0.8" /><circle cx="312.96" cy="183.18" r="5" fill="#1f77b4" fill-opacity="0.3" stroke="#1f77b4" stroke-width="0.8" /><circle cx="302.32" cy="197.79" r="5" fill="#1f77b4" fill-opacity="0.3" stroke="#1f77b4" stroke-width="0.8" /><circle cx="347.73" cy="159.67000000000002" r="5" fill="#1f77b4" fill-opacity="0.3" stroke="#1f77b4" stroke-width="0.8" /><circle cx="360.68" cy="201.19" r="5" fill="#1f77b4" fill-opacity="0.3" stroke="#1f77b4" stroke-width="0.8" /><circle cx="367.01" cy="247.28" r="5" fill="#1f77b4" fill-opacity="0.3" stroke="#1f77b4" stroke-width="0.8" /><circle cx="299.11" cy="184.66" r="5" fill="#1f77b4" fill-opacity="0.3" stroke="#1f77b4" stroke-width="0.8" /><circle cx="345.22" cy="191.11" r="5" fill="#1f77b4" fill-opacity="0.3" stroke="#1f77b4" stroke-width="0.8" /><circle cx="323.83" cy="215.19" r="5" fill="#1f77b4" fill-opacity="0.3" stroke="#1f77b4" stroke-width="0.8" /><circle cx="348.68" cy="175.97" r="5" fill="#1f77b4" fill-opacity="0.3" stroke="#1f77b4" stroke-width="0.8" /><circle cx="377.34000000000003" cy="202.26" r="5" fill="#1f77b4" fill-opacity="0.3" stroke="#1f77b4" stroke-width="0.8" /><circle cx="289.06" cy="202.07" r="5" fill="#1f77b4" fill-opacity="0.3" stroke="#1f77b4" stroke-width="0.8" /><circle cx="305.25" cy="174.03" r="5" fill="#1f77b4" fill-opacity="0.3" stroke="#1f77b4" stroke-width="0.8" /><circle cx="204.55" cy="400.33" r="5" fill="#ff7f0e" fill-opacity="0.3" stroke="#ff7f0e" stroke-width="0.8" /><circle cx="263.65" cy="379.28000000000003" r="5" fill="#ff7f0e" fill-opacity="0.3" stroke="#ff7f0e" stroke-width="0.8" /><circle cx="232.94" cy="398.40000000000003" r="5" fill="#ff7f0e" fill-opacity="0.3" stroke="#ff7f0e" stroke-width="0.8" /><circle cx="254.85" cy="388.91" r="5" fill="#ff7f0e" fill-opacity="0.3" stroke="#ff7f0e" stroke-width="0.8" /><circle cx="233.87" cy="435.43" r="5" fill="#ff7f0e" fill-opacity="0.3" stroke="#ff7f0e" stroke-width="0.8" /><circle cx="233.32" cy="428.05" r="5" fill="#ff7f0e" fill-opacity="0.3" stroke="#ff7f0e" stroke-width="0.8" /><circle cx="239.98000000000002" cy="410.08" r="5" fill="#ff7f0e" fill-opacity="0.3" stroke="#ff7f0e" stroke-width="0.8" /><circle cx="220.02" cy="419.58" r="5" fill="#ff7f0e" fill-opacity="0.3" stroke="#ff7f0e" stroke-width="0.8" /><circle cx="266.46" cy="406.79" r="5" fill="#ff7f0e" fill-opacity="0.3" stroke="#ff7f0e" stroke-width="0.8" /><circle cx="241.85" cy="405.37" r="5" fill="#ff7f0e" fill-opacity="0.3" stroke="#ff7f0e" stroke-width="0.8" /><circle cx="259.12" cy="384.76" r="5" fill="#ff7f0e" fill-opacity="0.3" stroke="#ff7f0e" stroke-width="0.8" /><circle cx="265.08" cy="421.90000000000003" r="5" fill="#ff7f0e" fill-opacity="0.3" stroke="#ff7f0e" stroke-width="0.8" /><circle cx="230.48000000000002" cy="400.2" r="5" fill="#ff7f0e" fill-opacity="0.3" stroke="#ff7f0e" stroke-width="0.8" /><circle cx="208.87" cy="411.49" r="5" fill="#ff7f0e" fill-opacity="0.3" stroke="#ff7f0e" stroke-width="0.8" /><circle cx="244.37" cy="378.28000000000003" r="5" fill="#ff7f0e" fill-opacity="0.3" stroke="#ff7f0e" stroke-width="0.8" /><circle cx="197.41" cy="433.66" r="5" fill="#ff7f0e" fill-opacity="0.3" stroke="#ff7f0e" stroke-width="0.8" /><circle cx="182.81" cy="417.58" r="5" fill="#ff7f0e" fill-opacity="0.3" stroke="#ff7f0e" stroke-width="0.8" /><circle cx="259.12" cy="398.17" r="5" fill="#ff7f0e" fill-opacity="0.3" stroke="#ff7f0e" stroke-width="0.8" /><circle cx="224.69" cy="405.33" r="5" fill="#ff7f0e" fill-opacity="0.3" stroke="#ff7f0e" stroke-width="0.8" /><circle cx="234.75" cy="395.82" r="5" fill="#ff7f0e" fill-opacity="0.3" stroke="#ff7f0e" stroke-width="0.8" /><circle cx="192.06" cy="423.46000000000004" r="5" fill="#ff7f0e" fill-opacity="0.3" stroke="#ff7f0e" stroke-width="0.8" /><circle cx="232.08" cy="407.6" r="5" fill="#ff7f0e" fill-opacity="0.3" stroke="#ff7f0e" stroke-width="0.8" /><circle cx="236.49" cy="395.54" r="5" fill="#ff7f0e" fill-opacity="0.3" stroke="#ff7f0e" stroke-width="0.8" /><circle cx="228.14000000000001" cy="398.22" r="5" fill="#ff7f0e" fill-opacity="0.3" stroke="#ff7f0e" stroke-width="0.8" /><circle cx="270.98" cy="380.06" r="5" fill="#ff7f0e" fill-opacity="0.3" stroke="#ff7f0e" stroke-width="0.8" /><circle cx="238.45000000000002" cy="389.99" r="5" fill="#ff7f0e" fill-opacity="0.3" stroke="#ff7f0e" stroke-width="0.8" /><circle cx="215.9" cy="388.69" r="5" fill="#ff7f0e" fill-opacity="0.3" stroke="#ff7f0e" stroke-width="0.8" /><circle cx="257.69" cy="362" r="5" fill="#ff7f0e" fill-opacity="0.3" stroke="#ff7f0e" stroke-width="0.8" /><circle cx="232.44" cy="381.37" r="5" fill="#ff7f0e" fill-opacity="0.3" stroke="#ff7f0e" stroke-width="0.8" /><circle cx="221.59" cy="368.06" r="5" fill="#ff7f0e" fill-opacity="0.3" stroke="#ff7f0e" stroke-width="0.8" /><circle cx="223.78" cy="418.23" r="5" fill="#ff7f0e" fill-opacity="0.3" stroke="#ff7f0e" stroke-width="0.8" /><circle cx="264.16" cy="409.84000000000003" r="5" fill="#ff7f0e" fill-opacity="0.3" stroke="#ff7f0e" stroke-width="0.8" /><circle cx="257.73" cy="384.33" r="5" fill="#ff7f0e" fill-opacity="0.3" stroke="#ff7f0e" stroke-width="0.8" /><circle cx="232.1" cy="417.95" r="5" fill="#ff7f0e" fill-opacity="0.3" stroke="#ff7f0e" stroke-width="0.8" /><circle cx="253.21" cy="387.11" r="5" fill="#ff7f0e" fill-opacity="0.3" stroke="#ff7f0e" stroke-width="0.8" /><circle cx="248.96" cy="384.71000000000004" r="5" fill="#ff7f0e" fill-opacity="0.3" stroke="#ff7f0e" stroke-width="0.8" /><circle cx="233.77" cy="423.48" r="5" fill="#ff7f0e" fill-opacity="0.3" stroke="#ff7f0e" stroke-width="0.8" /><circle cx="216.75" cy="374.38" r="5" fill="#ff7f0e" fill-opacity="0.3" stroke="#ff7f0e" stroke-width="0.8" /><circle cx="259.8" cy="370.35" r="5" fill="#ff7f0e" fill-opacity="0.3" stroke="#ff7f0e" stroke-width="0.8" /><circle cx="241.32" cy="350.27" r="5" fill="#ff7f0e" fill-opacity="0.3" stroke="#ff7f0e" stroke-width="0.8" /><circle cx="259.4" cy="410.48" r="5" fill="#ff7f0e" fill-opacity="0.3" stroke="#ff7f0e" stroke-width="0.8" /><circle cx="257.05" cy="397.94" r="5" fill="#ff7f0e" fill-opacity="0.3" stroke="#ff7f0e" stroke-width="0.8" /><circle cx="288.64" cy="386.77" r="5" fill="#ff7f0e" fill-opacity="0.3" stroke="#ff7f0e" stroke-width="0.8" /><circle cx="253.61" cy="403.15000000000003" r="5" fill="#ff7f0e" fill-opacity="0.3" stroke="#ff7f0e" stroke-width="0.8" /><circle cx="208.70000000000002" cy="446.12" r="5" fill="#ff7f0e" fill-opacity="0.3" stroke="#ff7f0e" stroke-width="0.8" /><circle cx="247.93" cy="385.17" r="5" fill="#ff7f0e" fill-opacity="0.3" stroke="#ff7f0e" stroke-width="0.8" /><circle cx="254.97" cy="412.48" r="5" fill="#ff7f0e" fill-opacity="0.3" stroke="#ff7f0e" stroke-width="0.8" /><circle cx="275.98" cy="394.99" r="5" fill="#ff7f0e" fill-opacity="0.3" stroke="#ff7f0e" stroke-width="0.8" /><circle cx="275.81" cy="416.62" r="5" fill="#ff7f0e" fill-opacity="0.3" stroke="#ff7f0e" stroke-width="0.8" /><circle cx="232.81" cy="379.97" r="5" fill="#ff7f0e" fill-opacity="0.3" stroke="#ff7f0e" stroke-width="0.8" /><circle cx="298.72" cy="388.74" r="5" fill="#ff7f0e" fill-opacity="0.3" stroke="#ff7f0e" stroke-width="0.8" /><circle cx="221.70000000000002" cy="431.06" r="5" fill="#ff7f0e" fill-opacity="0.3" stroke="#ff7f0e" stroke-width="0.8" /><circle cx="240.69" cy="363.35" r="5" fill="#ff7f0e" fill-opacity="0.3" stroke="#ff7f0e" stroke-width="0.8" /><circle cx="242.08" cy="397.24" r="5" fill="#ff7f0e" fill-opacity="0.3" stroke="#ff7f0e" stroke-width="0.8" /><circle cx="249" cy="378.52" r="5" fill="#ff7f0e" fill-opacity="0.3" stroke="#ff7f0e" stroke-width="0.8" /><circle cx="188.28" cy="430.76" r="5" fill="#ff7f0e" fill-opacity="0.3" stroke="#ff7f0e" stroke-width="0.8" /><circle cx="212.3" cy="393.99" r="5" fill="#ff7f0e" fill-opacity="0.3" stroke="#ff7f0e" stroke-width="0.8" /><circle cx="252.96" cy="391.82" r="5" fill="#ff7f0e" fill-opacity="0.3" stroke="#ff7f0e" stroke-width="0.8" /><circle cx="221.62" cy="396.86" r="5" fill="#ff7f0e" fill-opacity="0.3" stroke="#ff7f0e" stroke-width="0.8" /><circle cx="231.49" cy="440.94" r="5" fill="#ff7f0e" fill-opacity="0.3" stroke="#ff7f0e" stroke-width="0.8" /><circle cx="266.69" cy="389.71000000000004" r="5" fill="#ff7f0e" fill-opacity="0.3" stroke="#ff7f0e" stroke-width="0.8" /><circle cx="225.89000000000001" cy="419.37" r="5" fill="#ff7f0e" fill-opacity="0.3" stroke="#ff7f0e" stroke-width="0.8" /><circle cx="225.20000000000002" cy="404.48" r="5" fill="#ff7f0e" fill-opacity="0.3" stroke="#ff7f0e" stroke-width="0.8" /><circle cx="223.25" cy="446.41" r="5" fill="#ff7f0e" fill-opacity="0.3" stroke="#ff7f0e" stroke-width="0.8" /><circle cx="197.66" cy="413.85" r="5" fill="#ff7f0e" fill-opacity="0.3" stroke="#ff7f0e" stroke-width="0.8" /><circle cx="229.71" cy="447.76" r="5" fill="#ff7f0e" fill-opacity="0.3" stroke="#ff7f0e" stroke-width="0.8" /><circle cx="260" cy="356.63" r="5" fill="#ff7f0e" fill-opacity="0.3" stroke="#ff7f0e" stroke-width="0.8" /><circle cx="187.41" cy="441.67" r="5" fill="#ff7f0e" fill-opacity="0.3" stroke="#ff7f0e" stroke-width="0.8" /><circle cx="206.81" cy="430.19" r="5" fill="#ff7f0e" fill-opacity="0.3" stroke="#ff7f0e" stroke-width="0.8" /><circle cx="184.86" cy="428.65000000000003" r="5" fill="#ff7f0e" fill-opacity="0.3" stroke="#ff7f0e" stroke-width="0.8" /><circle cx="210.20000000000002" cy="383.49" r="5" fill="#ff7f0e" fill-opacity="0.3" stroke="#ff7f0e" stroke-width="0.8" /><circle cx="253.39000000000001" cy="396.83" r="5" fill="#ff7f0e" fill-opacity="0.3" stroke="#ff7f0e" stroke-width="0.8" /><circle cx="214.91" cy="409.01" r="5" fill="#ff7f0e" fill-opacity="0.3" stroke="#ff7f0e" stroke-width="0.8" /><circle cx="254.39000000000001" cy="379.33" r="5" fill="#ff7f0e" fill-opacity="0.3" stroke="#ff7f0e" stroke-width="0.8" /><circle cx="235.93" cy="405.6" r="5" fill="#ff7f0e" fill-opacity="0.3" stroke="#ff7f0e" stroke-width="0.8" /><circle cx="249.28" cy="404.03000000000003" r="5" fill="#ff7f0e" fill-opacity="0.3" stroke="#ff7f0e" stroke-width="0.8" /><circle cx="240.25" cy="372.40000000000003" r="5" fill="#ff7f0e" fill-opacity="0.3" stroke="#ff7f0e" stroke-width="0.8" /><circle cx="242.63" cy="415.78000000000003" r="5" fill="#ff7f0e" fill-opacity="0.3" stroke="#ff7f0e" stroke-width="0.8" /><circle cx="241.36" cy="379.63" r="5" fill="#ff7f0e" fill-opacity="0.3" stroke="#ff7f0e" stroke-width="0.8" /><circle cx="250.46" cy="413.6" r="5" fill="#ff7f0e" fill-opacity="0.3" stroke="#ff7f0e" stroke-width="0.8" /><circle cx="245.66" cy="428.81" r="5" fill="#ff7f0e" fill-opacity="0.3" stroke="#ff7f0e" stroke-width="0.8" /><circle cx="215.39000000000001" cy="397.06" r="5" fill="#ff7f0e" fill-opacity="0.3" stroke="#ff7f0e" stroke-width="0.8" /><circle cx="233.69" cy="354.94" r="5" fill="#ff7f0e" fill-opacity="0.3" stroke="#ff7f0e" stroke-width="0.8" /><circle cx="190.11" cy="432.59000000000003" r="5" fill="#ff7f0e" fill-opacity="0.3" stroke="#ff7f0e" stroke-width="0.8" /><circle cx="209.6" cy="418.05" r="5" fill="#ff7f0e" fill-opacity="0.3" stroke="#ff7f0e" stroke-width="0.8" /><circle cx="247.01000000000002" cy="364.29" r="5" fill="#ff7f0e" fill-opacity="0.3" stroke="#ff7f0e" stroke-width="0.8" /><circle cx="220.54" cy="400.93" r="5" fill="#ff7f0e" fill-opacity="0.3" stroke="#ff7f0e" stroke-width="0.8" /><circle cx="248.70000000000002" cy="370.54" r="5" fill="#ff7f0e" fill-opacity="0.3" stroke="#ff7f0e" stroke-width="0.8" /><circle cx="251.31" cy="373.21" r="5" fill="#ff7f0e" fill-opacity="0.3" stroke="#ff7f0e" stroke-width="0.8" /><circle cx="282.98" cy="390.32" r="5" fill="#ff7f0e" fill-opacity="0.3" stroke="#ff7f0e" stroke-width="0.8" /><circle cx="247.62" cy="424.49" r="5" fill="#ff7f0e" fill-opacity="0.3" stroke="#ff7f0e" stroke-width="0.8" /><circle cx="233.86" cy="415.02" r="5" fill="#ff7f0e" fill-opacity="0.3" stroke="#ff7f0e" stroke-width="0.8" /><circle cx="239.31" cy="419.53000000000003" r="5" fill="#ff7f0e" fill-opacity="0.3" stroke="#ff7f0e" stroke-width="0.8" /><circle cx="230.18" cy="408.08" r="5" fill="#ff7f0e" fill-opacity="0.3" stroke="#ff7f0e" stroke-width="0.8" /><circle cx="268.22" cy="405" r="5" fill="#ff7f0e" fill-opacity="0.3" stroke="#ff7f0e" stroke-width="0.8" /><circle cx="203.86" cy="385.17" r="5" fill="#ff7f0e" fill-opacity="0.3" stroke="#ff7f0e" stroke-width="0.8" /><circle cx="225.25" cy="401.78000000000003" r="5" fill="#ff7f0e" fill-opacity="0.3" stroke="#ff7f0e" stroke-width="0.8" /><circle cx="229.15" cy="399.98" r="5" fill="#ff7f0e" fill-opacity="0.3" stroke="#ff7f0e" stroke-width="0.8" /><circle cx="223.65" cy="453.46000000000004" r="5" fill="#ff7f0e" fill-opacity="0.3" stroke="#ff7f0e" stroke-width="0.8" /><circle cx="290.24" cy="400.26" r="5" fill="#ff7f0e" fill-opacity="0.3" stroke="#ff7f0e" stroke-width="0.8" /><circle cx="468.44" cy="401.35" r="5" fill="#2ca02c" fill-opacity="0.3" stroke="#2ca02c" stroke-width="0.8" /><circle cx="514.85" cy="414.13" r="5" fill="#2ca02c" fill-opacity="0.3" stroke="#2ca02c" stroke-width="0.8" /><circle cx="473.65000000000003" cy="358.38" r="5" fill="#2ca02c" fill-opacity="0.3" stroke="#2ca02c" stroke-width="0.8" /><circle cx="555.29" cy="444.52" r="5" fill="#2ca02c" fill-opacity="0.3" stroke="#2ca02c" stroke-width="0.8" /><circle cx="463.01" cy="404.84000000000003" r="5" fill="#2ca02c" fill-opacity="0.3" stroke="#2ca02c" stroke-width="0.8" /><circle cx="503.86" cy="382.43" r="5" fill="#2ca02c" fill-opacity="0.3" stroke="#2ca02c" stroke-width="0.8" /><circle cx="470.8" cy="412.92" r="5" fill="#2ca02c" fill-opacity="0.3" stroke="#2ca02c" stroke-width="0.8" /><circle cx="512.13" cy="375.32" r="5" fill="#2ca02c" fill-opacity="0.3" stroke="#2ca02c" stroke-width="0.8" /><circle cx="470.15000000000003" cy="377.21" r="5" fill="#2ca02c" fill-opacity="0.3" stroke="#2ca02c" stroke-width="0.8" /><circle cx="503.69" cy="413.43" r="5" fill="#2ca02c" fill-opacity="0.3" stroke="#2ca02c" stroke-width="0.8" /><circle cx="438.51" cy="396.65000000000003" r="5" fill="#2ca02c" fill-opacity="0.3" stroke="#2ca02c" stroke-width="0.8" /><circle cx="459.03000000000003" cy="410.53000000000003" r="5" fill="#2ca02c" fill-opacity="0.3" stroke="#2ca02c" stroke-width="0.8" /><circle cx="463.44" cy="403.18" r="5" fill="#2ca02c" fill-opacity="0.3" stroke="#2ca02c" stroke-width="0.8" /><circle cx="510.86" cy="422.89" r="5" fill="#2ca02c" fill-opacity="0.3" stroke="#2ca02c" stroke-width="0.8" /><circle cx="458.7" cy="429.27" r="5" fill="#2ca02c" fill-opacity="0.3" stroke="#2ca02c" stroke-width="0.8" /><circle cx="501.3" cy="362.35" r="5" fill="#2ca02c" fill-opacity="0.3" stroke="#2ca02c" stroke-width="0.8" /><circle cx="490.68" cy="399.88" r="5" fill="#2ca02c" fill-opacity="0.3" stroke="#2ca02c" stroke-width="0.8" /><circle cx="486.46000000000004" cy="391.85" r="5" fill="#2ca02c" fill-opacity="0.3" stroke="#2ca02c" stroke-width="0.8" /><circle cx="459.48" cy="377.87" r="5" fill="#2ca02c" fill-opacity="0.3" stroke="#2ca02c" stroke-width="0.8" /><circle cx="489.54" cy="400.46000000000004" r="5" fill="#2ca02c" fill-opacity="0.3" stroke="#2ca02c" stroke-width="0.8" /><circle cx="498.14" cy="354.07" r="5" fill="#2ca02c" fill-opacity="0.3" stroke="#2ca02c" stroke-width="0.8" /><circle cx="473.44" cy="357.94" r="5" fill="#2ca02c" fill-opacity="0.3" stroke="#2ca02c" stroke-width="0.8" /><circle cx="510.08" cy="360" r="5" fill="#2ca02c" fill-opacity="0.3" stroke="#2ca02c" stroke-width="0.8" /><circle cx="491.63" cy="379.15000000000003" r="5" fill="#2ca02c" fill-opacity="0.3" stroke="#2ca02c" stroke-width="0.8" /><circle cx="511.29" cy="410.46000000000004" r="5" fill="#2ca02c" fill-opacity="0.3" stroke="#2ca02c" stroke-width="0.8" /><circle cx="497.29" cy="417.57" r="5" fill="#2ca02c" fill-opacity="0.3" stroke="#2ca02c" stroke-width="0.8" /><circle cx="434.42" cy="418.87" r="5" fill="#2ca02c" fill-opacity="0.3" stroke="#2ca02c" stroke-width="0.8" /><circle cx="442.24" cy="382.48" r="5" fill="#2ca02c" fill-opacity="0.3" stroke="#2ca02c" stroke-width="0.8" /><circle cx="451.06" cy="362.99" r="5" fill="#2ca02c" fill-opacity="0.3" stroke="#2ca02c" stroke-width="0.8" /><circle cx="468.57" cy="404.11" r="5" fill="#2ca02c" fill-opacity="0.3" stroke="#2ca02c" stroke-width="0.8" /><circle cx="501.12" cy="408.87" r="5" fill="#2ca02c" fill-opacity="0.3" stroke="#2ca02c" stroke-width="0.8" /><circle cx="479.29" cy="421.63" r="5" fill="#2ca02c" fill-opacity="0.3" stroke="#2ca02c" stroke-width="0.8" /><circle cx="484.65000000000003" cy="389.36" r="5" fill="#2ca02c" fill-opacity="0.3" stroke="#2ca02c" stroke-width="0.8" /><circle cx="466.12" cy="399.66" r="5" fill="#2ca02c" fill-opacity="0.3" stroke="#2ca02c" stroke-width="0.8" /><circle cx="531.7" cy="427.58" r="5" fill="#2ca02c" fill-opacity="0.3" stroke="#2ca02c" stroke-width="0.8" /><circle cx="511.8" cy="364.02" r="5" fill="#2ca02c" fill-opacity="0.3" stroke="#2ca02c" stroke-width="0.8" /><circle cx="507.24" cy="391.19" r="5" fill="#2ca02c" fill-opacity="0.3" stroke="#2ca02c" stroke-width="0.8" /><circle cx="462.66" cy="374.74" r="5" fill="#2ca02c" fill-opacity="0.3" stroke="#2ca02c" stroke-width="0.8" /><circle cx="463.94" cy="380.44" r="5" fill="#2ca02c" fill-opacity="0.3" stroke="#2ca02c" stroke-width="0.8" /><circle cx="501.23" cy="413.14" r="5" fill="#2ca02c" fill-opacity="0.3" stroke="#2ca02c" stroke-width="0.8" /><circle cx="473.36" cy="380.92" r="5" fill="#2ca02c" fill-opacity="0.3" stroke="#2ca02c" stroke-width="0.8" /><circle cx="442.13" cy="395.07" r="5" fill="#2ca02c" fill-opacity="0.3" stroke="#2ca02c" stroke-width="0.8" /><circle cx="472.45" cy="397.97" r="5" fill="#2ca02c" fill-opacity="0.3" stroke="#2ca02c" stroke-width="0.8" /><circle cx="455.79" cy="366.47" r="5" fill="#2ca02c" fill-opacity="0.3" stroke="#2ca02c" stroke-width="0.8" /><circle cx="454.57" cy="432.1" r="5" fill="#2ca02c" fill-opacity="0.3" stroke="#2ca02c" stroke-width="0.8" /><circle cx="468.33" cy="389.42" r="5" fill="#2ca02c" fill-opacity="0.3" stroke="#2ca02c" stroke-width="0.8" /><circle cx="458.29" cy="411.51" r="5" fill="#2ca02c" fill-opacity="0.3" stroke="#2ca02c" stroke-width="0.8" /><circle cx="484.90000000000003" cy="377.63" r="5" fill="#2ca02c" fill-opacity="0.3" stroke="#2ca02c" stroke-width="0.8" /><circle cx="496.21000000000004" cy="408.37" r="5" fill="#2ca02c" fill-opacity="0.3" stroke="#2ca02c" stroke-width="0.8" /><circle cx="492.76" cy="420.23" r="5" fill="#2ca02c" fill-opacity="0.3" stroke="#2ca02c" stroke-width="0.8" /><circle cx="542.42" cy="395.74" r="5" fill="#2ca02c" fill-opacity="0.3" stroke="#2ca02c" stroke-width="0.8" /><circle cx="486.66" cy="383.41" r="5" fill="#2ca02c" fill-opacity="0.3" stroke="#2ca02c" stroke-width="0.8" /><circle cx="458.7" cy="408.2" r="5" fill="#2ca02c" fill-opacity="0.3" stroke="#2ca02c" stroke-width="0.8" /><circle cx="464.88" cy="411.87" r="5" fill="#2ca02c" fill-opacity="0.3" stroke="#2ca02c" stroke-width="0.8" /><circle cx="495.37" cy="454.95" r="5" fill="#2ca02c" fill-opacity="0.3" stroke="#2ca02c" stroke-width="0.8" /><circle cx="455.56" cy="392.41" r="5" fill="#2ca02c" fill-opacity="0.3" stroke="#2ca02c" stroke-width="0.8" /><circle cx="490.23" cy="428.93" r="5" fill="#2ca02c" fill-opacity="0.3" stroke="#2ca02c" stroke-width="0.8" /><circle cx="532.95" cy="443.65000000000003" r="5" fill="#2ca02c" fill-opacity="0.3" stroke="#2ca02c" stroke-width="0.8" /><circle cx="475.34000000000003" cy="391.69" r="5" fill="#2ca02c" fill-opacity="0.3" stroke="#2ca02c" stroke-width="0.8" /><circle cx="471.59000000000003" cy="420.95" r="5" fill="#2ca02c" fill-opacity="0.3" stroke="#2ca02c" stroke-width="0.8" /><circle cx="478.88" cy="454.95" r="5" fill="#2ca02c" fill-opacity="0.3" stroke="#2ca02c" stroke-width="0.8" /><circle cx="472.66" cy="419.87" r="5" fill="#2ca02c" fill-opacity="0.3" stroke="#2ca02c" stroke-width="0.8" /><circle cx="507.23" cy="373.29" r="5" fill="#2ca02c" fill-opacity="0.3" stroke="#2ca02c" stroke-width="0.8" /><circle cx="463.48" cy="409.92" r="5" fill="#2ca02c" fill-opacity="0.3" stroke="#2ca02c" stroke-width="0.8" /><circle cx="530.26" cy="390.77" r="5" fill="#2ca02c" fill-opacity="0.3" stroke="#2ca02c" stroke-width="0.8" /><circle cx="437.48" cy="454.95" r="5" fill="#2ca02c" fill-opacity="0.3" stroke="#2ca02c" stroke-width="0.8" /><circle cx="505.24" cy="434.82" r="5" fill="#2ca02c" fill-opacity="0.3" stroke="#2ca02c" stroke-width="0.8" /><circle cx="479.63" cy="368.26" r="5" fill="#2ca02c" fill-opacity="0.3" stroke="#2ca02c" stroke-width="0.8" /><circle cx="538.77" cy="396.02" r="5" fill="#2ca02c" fill-opacity="0.3" stroke="#2ca02c" stroke-width="0.8" /><circle cx="482.11" cy="434.73" r="5" fill="#2ca02c" fill-opacity="0.3" stroke="#2ca02c" stroke-width="0.8" /><circle cx="464.09000000000003" cy="407.74" r="5" fill="#2ca02c" fill-opacity="0.3" stroke="#2ca02c" stroke-width="0.8" /><circle cx="472.18" cy="388.51" r="5" fill="#2ca02c" fill-opacity="0.3" stroke="#2ca02c" stroke-width="0.8" /><circle cx="464.8" cy="412.88" r="5" fill="#2ca02c" fill-opacity="0.3" stroke="#2ca02c" stroke-width="0.8" /><circle cx="436.65000000000003" cy="398.11" r="5" fill="#2ca02c" fill-opacity="0.3" stroke="#2ca02c" stroke-width="0.8" /><circle cx="497.01" cy="425.52" r="5" fill="#2ca02c" fill-opacity="0.3" stroke="#2ca02c" stroke-width="0.8" /><circle cx="518.48" cy="413.52" r="5" fill="#2ca02c" fill-opacity="0.3" stroke="#2ca02c" stroke-width="0.8" /><circle cx="506.43" cy="419.42" r="5" fill="#2ca02c" fill-opacity="0.3" stroke="#2ca02c" stroke-width="0.8" /><circle cx="512.33" cy="379.22" r="5" fill="#2ca02c" fill-opacity="0.3" stroke="#2ca02c" stroke-width="0.8" /><circle cx="474.74" cy="398.2" r="5" fill="#2ca02c" fill-opacity="0.3" stroke="#2ca02c" stroke-width="0.8" /><circle cx="528.82" cy="367.1" r="5" fill="#2ca02c" fill-opacity="0.3" stroke="#2ca02c" stroke-width="0.8" /><circle cx="461.23" cy="388.2" r="5" fill="#2ca02c" fill-opacity="0.3" stroke="#2ca02c" stroke-width="0.8" /><circle cx="457.59000000000003" cy="378.87" r="5" fill="#2ca02c" fill-opacity="0.3" stroke="#2ca02c" stroke-width="0.8" /><circle cx="470.18" cy="387.64" r="5" fill="#2ca02c" fill-opacity="0.3" stroke="#2ca02c" stroke-width="0.8" /><circle cx="475.47" cy="359.23" r="5" fill="#2ca02c" fill-opacity="0.3" stroke="#2ca02c" stroke-width="0.8" /><circle cx="475.95" cy="403.98" r="5" fill="#2ca02c" fill-opacity="0.3" stroke="#2ca02c" stroke-width="0.8" /><circle cx="484.1" cy="390.3" r="5" fill="#2ca02c" fill-opacity="0.3" stroke="#2ca02c" stroke-width="0.8" /><circle cx="460.67" cy="394.83" r="5" fill="#2ca02c" fill-opacity="0.3" stroke="#2ca02c" stroke-width="0.8" /><circle cx="455.84000000000003" cy="373.04" r="5" fill="#2ca02c" fill-opacity="0.3" stroke="#2ca02c" stroke-width="0.8" /><circle cx="478.06" cy="454.95" r="5" fill="#2ca02c" fill-opacity="0.3" stroke="#2ca02c" stroke-width="0.8" /><circle cx="455.99" cy="395.66" r="5" fill="#2ca02c" fill-opacity="0.3" stroke="#2ca02c" stroke-width="0.8" /><circle cx="438.37" cy="365.85" r="5" fill="#2ca02c" fill-opacity="0.3" stroke="#2ca02c" stroke-width="0.8" /><circle cx="481.61" cy="386.74" r="5" fill="#2ca02c" fill-opacity="0.3" stroke="#2ca02c" stroke-width="0.8" /><circle cx="499" cy="380.90000000000003" r="5" fill="#2ca02c" fill-opacity="0.3" stroke="#2ca02c" stroke-width="0.8" /><circle cx="474.69" cy="406.85" r="5" fill="#2ca02c" fill-opacity="0.3" stroke="#2ca02c" stroke-width="0.8" /><circle cx="462.97" cy="414.65000000000003" r="5" fill="#2ca02c" fill-opacity="0.3" stroke="#2ca02c" stroke-width="0.8" /><circle cx="473.52" cy="391.88" r="5" fill="#2ca02c" fill-opacity="0.3" stroke="#2ca02c" stroke-width="0.8" /><circle cx="488.86" cy="395.95" r="5" fill="#2ca02c" fill-opacity="0.3" stroke="#2ca02c" stroke-width="0.8" /><circle cx="435.63" cy="391.12" r="5" fill="#2ca02c" fill-opacity="0.3" stroke="#2ca02c" stroke-width="0.8" /><circle cx="484.66" cy="358.42" r="5" fill="#2ca02c" fill-opacity="0.3" stroke="#2ca02c" stroke-width="0.8" /><circle cx="496.48" cy="361.92" r="5" fill="#2ca02c" fill-opacity="0.3" stroke="#2ca02c" stroke-width="0.8" /><circle cx="390.22" cy="330.02" r="5" fill="#d62728" fill-opacity="0.3" stroke="#d62728" stroke-width="0.8" /><circle cx="358.07" cy="331.12" r="5" fill="#d62728" fill-opacity="0.3" stroke="#d62728" stroke-width="0.8" /><circle cx="399.47" cy="342.31" r="5" fill="#d62728" fill-opacity="0.3" stroke="#d62728" stroke-width="0.8" /><circle cx="380.45" cy="306.18" r="5" fill="#d62728" fill-opacity="0.3" stroke="#d62728" stroke-width="0.8" /><circle cx="295.63" cy="370.89" r="5" fill="#d62728" fill-opacity="0.3" stroke="#d62728" stroke-width="0.8" /><circle cx="328.35" cy="241.77" r="5" fill="#d62728" fill-opacity="0.3" stroke="#d62728" stroke-width="0.8" /><circle cx="351.18" cy="298.06" r="5" fill="#d62728" fill-opacity="0.3" stroke="#d62728" stroke-width="0.8" /><circle cx="377.54" cy="345.19" r="5" fill="#d62728" fill-opacity="0.3" stroke="#d62728" stroke-width="0.8" /><circle cx="318.98" cy="356.25" r="5" fill="#d62728" fill-opacity="0.3" stroke="#d62728" stroke-width="0.8" /><circle cx="353.16" cy="319.55" r="5" fill="#d62728" fill-opacity="0.3" stroke="#d62728" stroke-width="0.8" /><circle cx="364.84000000000003" cy="353" r="5" fill="#d62728" fill-opacity="0.3" stroke="#d62728" stroke-width="0.8" /><circle cx="347.2" cy="336.45" r="5" fill="#d62728" fill-opacity="0.3" stroke="#d62728" stroke-width="0.8" /><circle cx="373.34000000000003" cy="296.91" r="5" fill="#d62728" fill-opacity="0.3" stroke="#d62728" stroke-width="0.8" /><circle cx="349.63" cy="324.64" r="5" fill="#d62728" fill-opacity="0.3" stroke="#d62728" stroke-width="0.8" /><circle cx="344.45" cy="336.26" r="5" fill="#d62728" fill-opacity="0.3" stroke="#d62728" stroke-width="0.8" /><circle cx="339.44" cy="374.85" r="5" fill="#d62728" fill-opacity="0.3" stroke="#d62728" stroke-width="0.8" /><circle cx="381.86" cy="263.81" r="5" fill="#d62728" fill-opacity="0.3" stroke="#d62728" stroke-width="0.8" /><circle cx="379.3" cy="309.38" r="5" fill="#d62728" fill-opacity="0.3" stroke="#d62728" stroke-width="0.8" /><circle cx="371.59000000000003" cy="306.68" r="5" fill="#d62728" fill-opacity="0.3" stroke="#d62728" stroke-width="0.8" /><circle cx="348.08" cy="329.69" r="5" fill="#d62728" fill-opacity="0.3" stroke="#d62728" stroke-width="0.8" /><circle cx="405.17" cy="329.90000000000003" r="5" fill="#d62728" fill-opacity="0.3" stroke="#d62728" stroke-width="0.8" /><circle cx="334.56" cy="334.1" r="5" fill="#d62728" fill-opacity="0.3" stroke="#d62728" stroke-width="0.8" /><circle cx="353.42" cy="364.22" r="5" fill="#d62728" fill-opacity="0.3" stroke="#d62728" stroke-width="0.8" /><circle cx="365.73" cy="355.86" r="5" fill="#d62728" fill-opacity="0.3" stroke="#d62728" stroke-width="0.8" /><circle cx="389.2" cy="331.15000000000003" r="5" fill="#d62728" fill-opacity="0.3" stroke="#d62728" stroke-width="0.8" /><circle cx="336.83" cy="354.19" r="5" fill="#d62728" fill-opacity="0.3" stroke="#d62728" stroke-width="0.8" /><circle cx="381.83" cy="334.81" r="5" fill="#d62728" fill-opacity="0.3" stroke="#d62728" stroke-width="0.8" /><circle cx="328.69" cy="373.27" r="5" fill="#d62728" fill-opacity="0.3" stroke="#d62728" stroke-width="0.8" /><circle cx="350.33" cy="350.41" r="5" fill="#d62728" fill-opacity="0.3" stroke="#d62728" stroke-width="0.8" /><circle cx="383.87" cy="340.75" r="5" fill="#d62728" fill-opacity="0.3" stroke="#d62728" stroke-width="0.8" /><circle cx="353.37" cy="344.34000000000003" r="5" fill="#d62728" fill-opacity="0.3" stroke="#d62728" stroke-width="0.8" /><circle cx="369.95" cy="324.09000000000003" r="5" fill="#d62728" fill-opacity="0.3" stroke="#d62728" stroke-width="0.8" /><circle cx="343.89" cy="337.52" r="5" fill="#d62728" fill-opacity="0.3" stroke="#d62728" stroke-width="0.8" /><circle cx="364.06" cy="337.27" r="5" fill="#d62728" fill-opacity="0.3" stroke="#d62728" stroke-width="0.8" /><circle cx="304.65000000000003" cy="327.49" r="5" fill="#d62728" fill-opacity="0.3" stroke="#d62728" stroke-width="0.8" /><circle cx="336.48" cy="365.69" r="5" fill="#d62728" fill-opacity="0.3" stroke="#d62728" stroke-width="0.8" /><circle cx="331.67" cy="330.65000000000003" r="5" fill="#d62728" fill-opacity="0.3" stroke="#d62728" stroke-width="0.8" /><circle cx="343.42" cy="300.92" r="5" fill="#d62728" fill-opacity="0.3" stroke="#d62728" stroke-width="0.8" /><circle cx="348.43" cy="361.7" r="5" fill="#d62728" fill-opacity="0.3" stroke="#d62728" stroke-width="0.8" /><circle cx="396.36" cy="361.76" r="5" fill="#d62728" fill-opacity="0.3" stroke="#d62728" stroke-width="0.8" /><circle cx="391.85" cy="288.56" r="5" fill="#d62728" fill-opacity="0.3" stroke="#d62728" stroke-width="0.8" /><circle cx="354.23" cy="310.79" r="5" fill="#d62728" fill-opacity="0.3" stroke="#d62728" stroke-width="0.8" /><circle cx="335.58" cy="292.53000000000003" r="5" fill="#d62728" fill-opacity="0.3" stroke="#d62728" stroke-width="0.8" /><circle cx="354.65000000000003" cy="295.85" r="5" fill="#d62728" fill-opacity="0.3" stroke="#d62728" stroke-width="0.8" /><circle cx="358.31" cy="341.3" r="5" fill="#d62728" fill-opacity="0.3" stroke="#d62728" stroke-width="0.8" /><circle cx="355.76" cy="347.47" r="5" fill="#d62728" fill-opacity="0.3" stroke="#d62728" stroke-width="0.8" /><circle cx="366.79" cy="353.5" r="5" fill="#d62728" fill-opacity="0.3" stroke="#d62728" stroke-width="0.8" /><circle cx="400.36" cy="308.44" r="5" fill="#d62728" fill-opacity="0.3" stroke="#d62728" stroke-width="0.8" /><circle cx="351.64" cy="311.53000000000003" r="5" fill="#d62728" fill-opacity="0.3" stroke="#d62728" stroke-width="0.8" /><circle cx="340.16" cy="357.18" r="5" fill="#d62728" fill-opacity="0.3" stroke="#d62728" stroke-width="0.8" /><circle cx="378.48" cy="357.98" r="5" fill="#d62728" fill-opacity="0.3" stroke="#d62728" stroke-width="0.8" /><circle cx="392.92" cy="293.12" r="5" fill="#d62728" fill-opacity="0.3" stroke="#d62728" stroke-width="0.8" /><circle cx="335.13" cy="350.58" r="5" fill="#d62728" fill-opacity="0.3" stroke="#d62728" stroke-width="0.8" /><circle cx="376.03000000000003" cy="336.59000000000003" r="5" fill="#d62728" fill-opacity="0.3" stroke="#d62728" stroke-width="0.8" /><circle cx="334.2" cy="335.78000000000003" r="5" fill="#d62728" fill-opacity="0.3" stroke="#d62728" stroke-width="0.8" /><circle cx="373.88" cy="350.82" r="5" fill="#d62728" fill-opacity="0.3" stroke="#d62728" stroke-width="0.8" /><circle cx="378.7" cy="338.6" r="5" fill="#d62728" fill-opacity="0.3" stroke="#d62728" stroke-width="0.8" /><circle cx="341.87" cy="314.40000000000003" r="5" fill="#d62728" fill-opacity="0.3" stroke="#d62728" stroke-width="0.8" /><circle cx="362.5" cy="343.89" r="5" fill="#d62728" fill-opacity="0.3" stroke="#d62728" stroke-width="0.8" /><circle cx="380.09000000000003" cy="362.07" r="5" fill="#d62728" fill-opacity="0.3" stroke="#d62728" stroke-width="0.8" /><circle cx="377.03000000000003" cy="331.90000000000003" r="5" fill="#d62728" fill-opacity="0.3" stroke="#d62728" stroke-width="0.8" /><circle cx="372.53000000000003" cy="309.73" r="5" fill="#d62728" fill-opacity="0.3" stroke="#d62728" stroke-width="0.8" /><circle cx="378.56" cy="292.33" r="5" fill="#d62728" fill-opacity="0.3" stroke="#d62728" stroke-width="0.8" /><circle cx="392.38" cy="325.53000000000003" r="5" fill="#d62728" fill-opacity="0.3" stroke="#d62728" stroke-width="0.8" /><circle cx="357.40000000000003" cy="347.73" r="5" fill="#d62728" fill-opacity="0.3" stroke="#d62728" stroke-width="0.8" /><circle cx="416.72" cy="321.46" r="5" fill="#d62728" fill-opacity="0.3" stroke="#d62728" stroke-width="0.8" /><circle cx="391.16" cy="320.02" r="5" fill="#d62728" fill-opacity="0.3" stroke="#d62728" stroke-width="0.8" /><circle cx="326.78000000000003" cy="311.1" r="5" fill="#d62728" fill-opacity="0.3" stroke="#d62728" stroke-width="0.8" /><circle cx="353.55" cy="341.63" r="5" fill="#d62728" fill-opacity="0.3" stroke="#d62728" stroke-width="0.8" /><circle cx="396.71000000000004" cy="334.55" r="5" fill="#d62728" fill-opacity="0.3" stroke="#d62728" stroke-width="0.8" /><circle cx="382.63" cy="338.16" r="5" fill="#d62728" fill-opacity="0.3" stroke="#d62728" stroke-width="0.8" /><circle cx="352.34000000000003" cy="289.7" r="5" fill="#d62728" fill-opacity="0.3" stroke="#d62728" stroke-width="0.8" /><circle cx="390.71000000000004" cy="325.48" r="5" fill="#d62728" fill-opacity="0.3" stroke="#d62728" stroke-width="0.8" /><circle cx="345.95" cy="333.24" r="5" fill="#d62728" fill-opacity="0.3" stroke="#d62728" stroke-width="0.8" /><circle cx="360.28000000000003" cy="337.93" r="5" fill="#d62728" fill-opacity="0.3" stroke="#d62728" stroke-width="0.8" /><circle cx="328.74" cy="330.6" r="5" fill="#d62728" fill-opacity="0.3" stroke="#d62728" stroke-width="0.8" /><circle cx="318.45" cy="281.98" r="5" fill="#d62728" fill-opacity="0.3" stroke="#d62728" stroke-width="0.8" /><circle cx="311.72" cy="311.49" r="5" fill="#d62728" fill-opacity="0.3" stroke="#d62728" stroke-width="0.8" /><circle cx="324.72" cy="359.78000000000003" r="5" fill="#d62728" fill-opacity="0.3" stroke="#d62728" stroke-width="0.8" /><circle cx="344.11" cy="309.1" r="5" fill="#d62728" fill-opacity="0.3" stroke="#d62728" stroke-width="0.8" /><circle cx="371.8" cy="338.18" r="5" fill="#d62728" fill-opacity="0.3" stroke="#d62728" stroke-width="0.8" /><circle cx="341.86" cy="290.6" r="5" fill="#d62728" fill-opacity="0.3" stroke="#d62728" stroke-width="0.8" /><circle cx="349.24" cy="332.84000000000003" r="5" fill="#d62728" fill-opacity="0.3" stroke="#d62728" stroke-width="0.8" /><circle cx="356.82" cy="280.29" r="5" fill="#d62728" fill-opacity="0.3" stroke="#d62728" stroke-width="0.8" /><circle cx="374.25" cy="324.17" r="5" fill="#d62728" fill-opacity="0.3" stroke="#d62728" stroke-width="0.8" /><circle cx="352.95" cy="326.86" r="5" fill="#d62728" fill-opacity="0.3" stroke="#d62728" stroke-width="0.8" /><circle cx="362.04" cy="352.03000000000003" r="5" fill="#d62728" fill-opacity="0.3" stroke="#d62728" stroke-width="0.8" /><circle cx="375.38" cy="341.68" r="5" fill="#d62728" fill-opacity="0.3" stroke="#d62728" stroke-width="0.8" /><circle cx="297.01" cy="315.25" r="5" fill="#d62728" fill-opacity="0.3" stroke="#d62728" stroke-width="0.8" /><circle cx="352.83" cy="322.32" r="5" fill="#d62728" fill-opacity="0.3" stroke="#d62728" stroke-width="0.8" /><circle cx="371.24" cy="364.17" r="5" fill="#d62728" fill-opacity="0.3" stroke="#d62728" stroke-width="0.8" /><circle cx="366.85" cy="316.95" r="5" fill="#d62728" fill-opacity="0.3" stroke="#d62728" stroke-width="0.8" /><circle cx="347.41" cy="347.15000000000003" r="5" fill="#d62728" fill-opacity="0.3" stroke="#d62728" stroke-width="0.8" /><circle cx="398.69" cy="330.23" r="5" fill="#d62728" fill-opacity="0.3" stroke="#d62728" stroke-width="0.8" /><circle cx="356.59000000000003" cy="284.76" r="5" fill="#d62728" fill-opacity="0.3" stroke="#d62728" stroke-width="0.8" /><circle cx="360.88" cy="325.45" r="5" fill="#d62728" fill-opacity="0.3" stroke="#d62728" stroke-width="0.8" /><circle cx="352.79" cy="351.16" r="5" fill="#d62728" fill-opacity="0.3" stroke="#d62728" stroke-width="0.8" /><circle cx="338.68" cy="302.40000000000003" r="5" fill="#d62728" fill-opacity="0.3" stroke="#d62728" stroke-width="0.8" /><circle cx="325.89" cy="316.96" r="5" fill="#d62728" fill-opacity="0.3" stroke="#d62728" stroke-width="0.8" /><circle cx="359.24" cy="351.43" r="5" fill="#d62728" fill-opacity="0.3" stroke="#d62728" stroke-width="0.8" /><rect x="666.3000000000001" y="36.95" width="110.83" height="86" fill="#ffffff" /><rect x="666.3000000000001" y="36.95" width="110.83" height="86" fill="none" stroke="#000000" stroke-width="1" /><text x="696.3000000000001" y="57.33" font-size="12" text-anchor="start">Sandy loam</text><circle cx="681.3000000000001" cy="52.95" r="5" fill="#1f77b4" /><text x="696.3000000000001" y="75.33" font-size="12" text-anchor="start">Silt loam</text><circle cx="681.3000000000001" cy="70.95" r="5" fill="#ff7f0e" /><text x="696.3000000000001" y="93.33" font-size="12" text-anchor="start">Clay</text><circle cx="681.3000000000001" cy="88.95" r="5" fill="#2ca02c" /><text x="696.3000000000001" y="111.33" font-size="12" text-anchor="start">Loam</text><circle cx="681.3000000000001" cy="106.95" r="5" fill="#d62728" /></svg>