<svg xmlns="http://www.w3.org/2000/svg" width="806.79" height="547.95" font-family="DejaVu Sans, Verdana, Liberation Sans, Arial, sans-serif" fill="black"><rect width="100%" height="100%" fill="white" /><defs><clipPath id="kuva-clip-1"><rect x="61.300000000000004" y="46.95" width="600" height="450"/></clipPath></defs><line x1="211.3" y1="46.95" x2="211.3" y2="496.95" stroke="#cccccc" stroke-width="1" /><line x1="361.3" y1="46.95" x2="361.3" y2="496.95" stroke="#cccccc" stroke-width="1" /><line x1="511.3" y1="46.95" x2="511.3" y2="496.95" stroke="#cccccc" stroke-width="1" /><line x1="661.3000000000001" y1="46.95" x2="661.3000000000001" y2="496.95" stroke="#cccccc" stroke-width="1" /><line x1="61.300000000000004" y1="476.5" x2="661.3000000000001" y2="476.5" stroke="#cccccc" stroke-width="1" /><line x1="61.300000000000004" y1="374.23" x2="661.3000000000001" y2="374.23" stroke="#cccccc" stroke-width="1" /><line x1="61.300000000000004" y1="271.95" x2="661.3000000000001" y2="271.95" stroke="#cccccc" stroke-width="1" /><line x1="61.300000000000004" y1="169.68" x2="661.3000000000001" y2="169.68" stroke="#cccccc" stroke-width="1" /><line x1="61.300000000000004" y1="67.41" x2="661.3000000000001" y2="67.41" stroke="#cccccc" stroke-width="1" /><line x1="61.300000000000004" y1="496.95" x2="661.3000000000001" y2="496.95" stroke="#000000" stroke-width="1" /><line x1="61.300000000000004" y1="46.95" x2="61.300000000000004" y2="496.95" stroke="#000000" stroke-width="1" /><line x1="61.300000000000004" y1="496.95" x2="61.300000000000004" y2="501.95" stroke="#000000" stroke-width="1" /><text x="61.300000000000004" y="513.09" font-size="12" text-anchor="middle">0</text><line x1="211.3" y1="496.95" x2="211.3" y2="501.95" stroke="#000000" stroke-width="1" /><text x="211.3" y="513.09" font-size="12" text-anchor="middle">20</text><line x1="361.3" y1="496.95" x2="361.3" y2="501.95" stroke="#000000" stroke-width="1" /><text x="361.3" y="513.09" font-size="12" text-anchor="middle">40</text><line x1="511.3" y1="496.95" x2="511.3" y2="501.95" stroke="#000000" stroke-width="1" /><text x="511.3" y="513.09" font-size="12" text-anchor="middle">60</text><line x1="661.3000000000001" y1="496.95" x2="661.3000000000001" y2="501.95" stroke="#000000" stroke-width="1" /><text x="661.3000000000001" y="513.09" font-size="12" text-anchor="middle">80</text><line x1="56.300000000000004" y1="476.5" x2="61.300000000000004" y2="476.5" stroke="#000000" stroke-width="1" /><text x="53.300000000000004" y="480.87" font-size="12" text-anchor="end">-1</text><line x1="56.300000000000004" y1="374.23" x2="61.300000000000004" y2="374.23" stroke="#000000" stroke-width="1" /><text x="53.300000000000004" y="378.6" font-size="12" text-anchor="end">-0.5</text><line x1="56.300000000000004" y1="271.95" x2="61.300000000000004" y2="271.95" stroke="#000000" stroke-width="1" /><text x="53.300000000000004" y="276.33" font-size="12" text-anchor="end">0</text><line x1="56.300000000000004" y1="169.68" x2="61.300000000000004" y2="169.68" stroke="#000000" stroke-width="1" /><text x="53.300000000000004" y="174.05" font-size="12" text-anchor="end">0.5</text><line x1="56.300000000000004" y1="67.41" x2="61.300000000000004" y2="67.41" stroke="#000000" stroke-width="1" /><text x="53.300000000000004" y="71.78" font-size="12" text-anchor="end">1</text><text x="361.3" y="540.95" font-size="14" text-anchor="middle">Sample</text><text x="17.3" y="271.95" font-size="14" text-anchor="middle" transform="rotate(-90,17.3,271.95)">Amplitude</text><text x="361.3" y="29.71" font-size="18" text-anchor="middle">Multiple Series</text><g clip-path="url(#kuva-clip-1)"><path d="M 61.300000000000004 271.95 L 68.8 255.9 L 76.3 239.96 L 83.8 224.20000000000002 L 91.3 208.75 L 98.8 193.68 L 106.3 179.09 L 113.8 165.08 L 121.3 151.72 L 128.8 139.11 L 136.3 127.32000000000001 L 143.8 116.42 L 151.3 106.47 L 158.8 97.55 L 166.3 89.7 L 173.8 82.98 L 181.3 77.42 L 188.8 73.06 L 196.3 69.93 L 203.8 68.04 L 211.3 67.41 L 218.8 68.04 L 226.3 69.93 L 233.8 73.06 L 241.3 77.42 L 248.8 82.98 L 256.3 89.7 L 263.8 97.55 L 271.3 106.47 L 278.8 116.42 L 286.3 127.32000000000001 L 293.8 139.11 L 301.3 151.72 L 308.8 165.08 L 316.3 179.09 L 323.8 193.68 L 331.3 208.75 L 338.8 224.20000000000002 L 346.3 239.96 L 353.8 255.9 L 361.3 271.95 L 368.8 288.0 L 376.3 303.95 L 383.8 319.7 L 391.3 335.16 L 398.8 350.23 L 406.3 364.81 L 413.8 378.83 L 421.3 392.18 L 428.8 404.79 L 436.3 416.59000000000003 L 443.8 427.49 L 451.3 437.43 L 458.8 446.36 L 466.3 454.2 L 473.8 460.93 L 481.3 466.49 L 488.8 470.85 L 496.3 473.98 L 503.8 475.87 L 511.3 476.5 L 518.8 475.87 L 526.3 473.98 L 533.8 470.85 L 541.3 466.49 L 548.8000000000001 460.93 L 556.3000000000001 454.2 L 563.8000000000001 446.36 L 571.3000000000001 437.43 L 578.8000000000001 427.49 L 586.3000000000001 416.59000000000003 L 593.8000000000001 404.79 L 601.3000000000001 392.18 L 608.8000000000001 378.83 L 616.3000000000001 364.81 L 623.8000000000001 350.23 L 631.3000000000001 335.16 L 638.8000000000001 319.7 L 646.3000000000001 303.95 L 653.8000000000001 288.0 " stroke="#4682b4" stroke-width="2" fill="none" /><path d="M 61.300000000000004 67.41 L 68.8 68.04 L 76.3 69.93 L 83.8 73.06 L 91.3 77.42 L 98.8 82.98 L 106.3 89.7 L 113.8 97.55 L 121.3 106.47 L 128.8 116.42 L 136.3 127.32000000000001 L 143.8 139.11 L 151.3 151.72 L 158.8 165.08 L 166.3 179.09 L 173.8 193.68 L 181.3 208.75 L 188.8 224.20000000000002 L 196.3 239.96 L 203.8 255.9 L 211.3 271.95 L 218.8 288.0 L 226.3 303.95 L 233.8 319.7 L 241.3 335.16 L 248.8 350.23 L 256.3 364.81 L 263.8 378.83 L 271.3 392.18 L 278.8 404.79 L 286.3 416.59000000000003 L 293.8 427.49 L 301.3 437.43 L 308.8 446.36 L 316.3 454.2 L 323.8 460.93 L 331.3 466.49 L 338.8 470.85 L 346.3 473.98 L 353.8 475.87 L 361.3 476.5 L 368.8 475.87 L 376.3 473.98 L 383.8 470.85 L 391.3 466.49 L 398.8 460.93 L 406.3 454.2 L 413.8 446.36 L 421.3 437.43 L 428.8 427.49 L 436.3 416.59000000000003 L 443.8 404.79 L 451.3 392.18 L 458.8 378.83 L 466.3 364.81 L 473.8 350.23 L 481.3 335.16 L 488.8 319.7 L 496.3 303.95 L 503.8 288.0 L 511.3 271.95 L 518.8 255.9 L 526.3 239.96 L 533.8 224.20000000000002 L 541.3 208.75 L 548.8000000000001 193.68 L 556.3000000000001 179.09 L 563.8000000000001 165.08 L 571.3000000000001 151.72 L 578.8000000000001 139.11 L 586.3000000000001 127.32000000000001 L 593.8000000000001 116.42 L 601.3000000000001 106.47 L 608.8000000000001 97.55 L 616.3000000000001 89.7 L 623.8000000000001 82.98 L 631.3000000000001 77.42 L 638.8000000000001 73.06 L 646.3000000000001 69.93 L 653.8000000000001 68.04 " stroke="#b22222" stroke-width="2" fill="none" /><path d="M 61.300000000000004 271.95 L 68.8 256.52 L 76.3 242.37 L 83.8 229.51 L 91.3 217.93 L 98.8 207.63 L 106.3 198.58 L 113.8 190.77 L 121.3 184.14000000000001 L 128.8 178.66 L 136.3 174.29 L 143.8 170.97 L 151.3 168.66 L 158.8 167.28 L 166.3 166.78 L 173.8 167.1 L 181.3 168.17000000000002 L 188.8 169.93 L 196.3 172.32 L 203.8 175.26 L 211.3 178.69 L 218.8 182.56 L 226.3 186.8 L 233.8 191.35 L 241.3 196.15 L 248.8 201.15 L 256.3 206.3 L 263.8 211.55 L 271.3 216.84 L 278.8 222.15 L 286.3 227.43 L 293.8 232.63 L 301.3 237.73000000000002 L 308.8 242.71 L 316.3 247.52 L 323.8 252.15 L 331.3 256.58 L 338.8 260.79 L 346.3 264.76 L 353.8 268.48 L 361.3 271.95 L 368.8 275.16 L 376.3 278.1 L 383.8 280.78000000000003 L 391.3 283.18 L 398.8 285.32 L 406.3 287.2 L 413.8 288.83 L 421.3 290.21 L 428.8 291.35 L 436.3 292.26 L 443.8 292.94 L 451.3 293.43 L 458.8 293.71 L 466.3 293.82 L 473.8 293.75 L 481.3 293.53000000000003 L 488.8 293.16 L 496.3 292.67 L 503.8 292.05 L 511.3 291.34000000000003 L 518.8 290.54 L 526.3 289.65000000000003 L 533.8 288.71 L 541.3 287.71 L 548.8000000000001 286.67 L 556.3000000000001 285.6 L 563.8000000000001 284.51 L 571.3000000000001 283.41 L 578.8000000000001 282.31 L 586.3000000000001 281.21 L 593.8000000000001 280.13 L 601.3000000000001 279.07 L 608.8000000000001 278.03000000000003 L 616.3000000000001 277.03000000000003 L 623.8000000000001 276.07 L 631.3000000000001 275.15000000000003 L 638.8000000000001 274.27 L 646.3000000000001 273.45 L 653.8000000000001 272.67 " stroke="#2e8b57" stroke-width="1.5" fill="none" /></g><rect x="666.3000000000001" y="36.95" width="128.31" height="68" fill="#ffffff" /><rect x="666.3000000000001" y="36.95" width="128.31" height="68" fill="none" stroke="#000000" stroke-width="1" /><text x="696.3000000000001" y="57.33" font-size="12" text-anchor="start">sin(t)</text><circle cx="681.3000000000001" cy="52.95" r="5" fill="#4682b4" /><text x="696.3000000000001" y="75.33" font-size="12" text-anchor="start">cos(t)</text><circle cx="681.3000000000001" cy="70.95" r="5" fill="#b22222" /><text x="696.3000000000001" y="93.33" font-size="12" text-anchor="start">e^(−t/2)·sin(t)</text><circle cx="681.3000000000001" cy="88.95" r="5" fill="#2e8b57" /></svg>