<svg xmlns="http://www.w3.org/2000/svg" width="765.19" height="547.95" font-family="DejaVu Sans, Verdana, Liberation Sans, Arial, sans-serif" fill="black"><rect width="100%" height="100%" fill="white" /><text x="361.3" y="29.71" font-size="18" text-anchor="middle">Clade Coloring by Domain</text><line x1="86.3" y1="171.95000000000002" x2="334.65000000000003" y2="171.95000000000002" stroke="#e41a1c" stroke-width="1.5" /><line x1="86.3" y1="371.95" x2="334.65000000000003" y2="371.95" stroke="#377eb8" stroke-width="1.5" /><line x1="334.65000000000003" y1="121.95" x2="583" y2="121.95" stroke="#e41a1c" stroke-width="1.5" /><line x1="334.65000000000003" y1="221.95000000000002" x2="583" y2="221.95000000000002" stroke="#e41a1c" stroke-width="1.5" /><line x1="334.65000000000003" y1="321.95" x2="583" y2="321.95" stroke="#377eb8" stroke-width="1.5" /><line x1="334.65000000000003" y1="421.95" x2="583" y2="421.95" stroke="#377eb8" stroke-width="1.5" /><line x1="86.3" y1="171.95000000000002" x2="86.3" y2="371.95" stroke="#000000" stroke-width="1.5" /><line x1="334.65000000000003" y1="121.95" x2="334.65000000000003" y2="221.95000000000002" stroke="#e41a1c" stroke-width="1.5" /><line x1="334.65000000000003" y1="321.95" x2="334.65000000000003" y2="421.95" stroke="#377eb8" stroke-width="1.5" /><circle cx="86.3" cy="271.95" r="3" fill="#000000" /><text x="589" y="121.95" font-size="11" text-anchor="start">E. coli</text><text x="589" y="221.95000000000002" font-size="11" text-anchor="start">B. subtilis</text><text x="589" y="321.95" font-size="11" text-anchor="start">Yeast</text><text x="589" y="421.95" font-size="11" text-anchor="start">Human</text><rect x="666.3000000000001" y="36.95" width="89.89" height="50" fill="#ffffff" /><rect x="666.3000000000001" y="36.95" width="89.89" height="50" fill="none" stroke="#000000" stroke-width="1" /><text x="696.3000000000001" y="57.33" font-size="12" text-anchor="start">Bacteria</text><line x1="676.3000000000001" y1="52.95" x2="688.3000000000001" y2="52.95" stroke="#e41a1c" stroke-width="2" /><text x="696.3000000000001" y="75.33" font-size="12" text-anchor="start">Eukarya</text><line x1="676.3000000000001" y1="70.95" x2="688.3000000000001" y2="70.95" stroke="#377eb8" stroke-width="2" /></svg>