<svg xmlns="http://www.w3.org/2000/svg" width="600" height="440" font-family="DejaVu Sans, Verdana, Liberation Sans, Arial, sans-serif" fill="black"><rect width="100%" height="100%" fill="white" /><defs><clipPath id="kuva-clip-3"><rect x="61.300000000000004" y="46.95" width="316.11" height="342.05"/></clipPath></defs><line x1="121.51" y1="46.95" x2="121.51" y2="389" stroke="#cccccc" stroke-width="1" /><line x1="181.72" y1="46.95" x2="181.72" y2="389" stroke="#cccccc" stroke-width="1" /><line x1="241.93" y1="46.95" x2="241.93" y2="389" stroke="#cccccc" stroke-width="1" /><line x1="302.14" y1="46.95" x2="302.14" y2="389" stroke="#cccccc" stroke-width="1" /><line x1="362.35" y1="46.95" x2="362.35" y2="389" stroke="#cccccc" stroke-width="1" /><line x1="61.300000000000004" y1="323.85" x2="377.40000000000003" y2="323.85" stroke="#cccccc" stroke-width="1" /><line x1="61.300000000000004" y1="258.7" x2="377.40000000000003" y2="258.7" stroke="#cccccc" stroke-width="1" /><line x1="61.300000000000004" y1="193.54" x2="377.40000000000003" y2="193.54" stroke="#cccccc" stroke-width="1" /><line x1="61.300000000000004" y1="128.39000000000001" x2="377.40000000000003" y2="128.39000000000001" stroke="#cccccc" stroke-width="1" /><line x1="61.300000000000004" y1="63.24" x2="377.40000000000003" y2="63.24" stroke="#cccccc" stroke-width="1" /><line x1="61.300000000000004" y1="389" x2="377.40000000000003" y2="389" stroke="#000000" stroke-width="1" /><line x1="61.300000000000004" y1="46.95" x2="61.300000000000004" y2="389" stroke="#000000" stroke-width="1" /><line x1="61.300000000000004" y1="389" x2="61.300000000000004" y2="394" stroke="#000000" stroke-width="1" /><text x="61.300000000000004" y="405.14" font-size="12" text-anchor="middle">0</text><line x1="121.51" y1="389" x2="121.51" y2="394" stroke="#000000" stroke-width="1" /><text x="121.51" y="405.14" font-size="12" text-anchor="middle">0.2</text><line x1="181.72" y1="389" x2="181.72" y2="394" stroke="#000000" stroke-width="1" /><text x="181.72" y="405.14" font-size="12" text-anchor="middle">0.4</text><line x1="241.93" y1="389" x2="241.93" y2="394" stroke="#000000" stroke-width="1" /><text x="241.93" y="405.14" font-size="12" text-anchor="middle">0.6</text><line x1="302.14" y1="389" x2="302.14" y2="394" stroke="#000000" stroke-width="1" /><text x="302.14" y="405.14" font-size="12" text-anchor="middle">0.8</text><line x1="362.35" y1="389" x2="362.35" y2="394" stroke="#000000" stroke-width="1" /><text x="362.35" y="405.14" font-size="12" text-anchor="middle">1</text><line x1="56.300000000000004" y1="389" x2="61.300000000000004" y2="389" stroke="#000000" stroke-width="1" /><text x="53.300000000000004" y="393.37" font-size="12" text-anchor="end">0</text><line x1="56.300000000000004" y1="323.85" x2="61.300000000000004" y2="323.85" stroke="#000000" stroke-width="1" /><text x="53.300000000000004" y="328.22" font-size="12" text-anchor="end">0.2</text><line x1="56.300000000000004" y1="258.7" x2="61.300000000000004" y2="258.7" stroke="#000000" stroke-width="1" /><text x="53.300000000000004" y="263.07" font-size="12" text-anchor="end">0.4</text><line x1="56.300000000000004" y1="193.54" x2="61.300000000000004" y2="193.54" stroke="#000000" stroke-width="1" /><text x="53.300000000000004" y="197.92000000000002" font-size="12" text-anchor="end">0.6</text><line x1="56.300000000000004" y1="128.39000000000001" x2="61.300000000000004" y2="128.39000000000001" stroke="#000000" stroke-width="1" /><text x="53.300000000000004" y="132.77" font-size="12" text-anchor="end">0.8</text><line x1="56.300000000000004" y1="63.24" x2="61.300000000000004" y2="63.24" stroke="#000000" stroke-width="1" /><text x="53.300000000000004" y="67.62" font-size="12" text-anchor="end">1</text><text x="219.35" y="433" font-size="14" text-anchor="middle">1 − Specificity</text><text x="17.3" y="217.98000000000002" font-size="14" text-anchor="middle" transform="rotate(-90,17.3,217.98000000000002)">Sensitivity</text><text x="219.35" y="29.71" font-size="18" text-anchor="middle">Diagnostic Biomarker Comparison</text><g clip-path="url(#kuva-clip-3)"><line x1="61.300000000000004" y1="389" x2="362.35" y2="63.24" stroke="#aaaaaa" stroke-width="1" stroke-dasharray="5,3" /><path d="M 61.300000000000004,384 L 61.300000000000004,381.29 L 61.300000000000004,378.57 L 61.300000000000004,375.86 L 61.300000000000004,373.14 L 61.300000000000004,370.43 L 61.300000000000004,367.71 L 61.300000000000004,365 L 61.300000000000004,362.28000000000003 L 61.300000000000004,359.57 L 61.300000000000004,356.86 L 61.300000000000004,354.14 L 61.300000000000004,351.43 L 61.300000000000004,348.71 L 61.300000000000004,346 L 61.300000000000004,343.28000000000003 L 61.300000000000004,340.57 L 61.300000000000004,337.85 L 61.300000000000004,335.14 L 61.300000000000004,332.42 L 61.300000000000004,329.71 L 61.300000000000004,326.99 L 61.300000000000004,324.28000000000003 L 61.300000000000004,321.56 L 61.300000000000004,318.85 L 61.300000000000004,316.14 L 61.300000000000004,313.42 L 61.300000000000004,310.71 L 61.300000000000004,307.99 L 61.300000000000004,305.28000000000003 L 61.300000000000004,302.56 L 61.300000000000004,299.85 L 61.300000000000004,297.13 L 61.300000000000004,294.42 L 61.300000000000004,291.7 L 61.300000000000004,288.99 L 61.300000000000004,286.27 L 61.300000000000004,283.56 L 61.300000000000004,280.85 L 61.300000000000004,278.13 L 61.300000000000004,275.42 L 61.300000000000004,272.7 L 61.300000000000004,269.99 L 61.300000000000004,267.27 L 61.300000000000004,264.56 L 61.300000000000004,261.84000000000003 L 61.300000000000004,259.13 L 61.300000000000004,256.41 L 61.300000000000004,253.70000000000002 L 61.300000000000004,250.98000000000002 L 61.300000000000004,248.27 L 61.300000000000004,245.55 L 61.300000000000004,242.84 L 61.300000000000004,240.13 L 61.300000000000004,237.41 L 61.300000000000004,234.70000000000002 L 61.300000000000004,231.98000000000002 L 61.300000000000004,229.27 L 61.300000000000004,226.55 L 61.300000000000004,223.84 L 61.300000000000004,221.12 L 61.300000000000004,218.41 L 61.300000000000004,215.69 L 61.300000000000004,212.98000000000002 L 63.81,212.98000000000002 L 63.81,210.26 L 63.81,207.55 L 63.81,204.83 L 63.81,202.12 L 63.81,199.41 L 63.81,196.69 L 63.81,193.98000000000002 L 63.81,191.26 L 63.81,188.55 L 63.81,185.83 L 63.81,183.12 L 63.81,180.4 L 63.81,177.69 L 63.81,174.97 L 63.81,172.26 L 63.81,169.54 L 63.81,166.83 L 63.81,164.11 L 63.81,161.4 L 63.81,158.69 L 66.31,158.69 L 66.31,155.97 L 66.31,153.26 L 66.31,150.54 L 66.31,147.83 L 66.31,145.11 L 66.31,142.4 L 66.31,139.68 L 66.31,136.97 L 66.31,134.25 L 66.31,131.54 L 68.82000000000001,131.54 L 68.82000000000001,128.82 L 68.82000000000001,126.11 L 68.82000000000001,123.39 L 68.82000000000001,120.68 L 68.82000000000001,117.97 L 68.82000000000001,115.25 L 71.33,115.25 L 71.33,112.54 L 71.33,109.82000000000001 L 71.33,107.11 L 71.33,104.39 L 73.84,104.39 L 73.84,101.68 L 73.84,98.96000000000001 L 76.35000000000001,98.96000000000001 L 76.35000000000001,96.25 L 76.35000000000001,93.53 L 78.86,93.53 L 78.86,90.82000000000001 L 78.86,88.10000000000001 L 81.37,88.10000000000001 L 81.37,85.39 L 83.88,85.39 L 83.88,82.68 L 86.38,82.68 L 86.38,79.96000000000001 L 88.89,79.96000000000001 L 88.89,77.25 L 91.4,77.25 L 93.91,77.25 L 93.91,74.53 L 96.42,74.53 L 98.93,74.53 L 98.93,71.82000000000001 L 101.44,71.82000000000001 L 103.95,71.82000000000001 L 103.95,69.10000000000001 L 106.45,69.10000000000001 L 108.96000000000001,69.10000000000001 L 111.47,69.10000000000001 L 113.98,69.10000000000001 L 113.98,66.39 L 116.49000000000001,66.39 L 119,66.39 L 121.51,66.39 L 124.02,66.39 L 126.52,66.39 L 129.03,66.39 L 129.03,63.67 L 131.54,63.67 L 134.05,63.67 L 136.56,63.67 L 139.07,63.67 L 141.58,63.67 L 144.09,63.67 L 146.6,63.67 L 149.1,63.67 L 151.61,63.67 L 154.12,63.67 L 154.12,63.24 L 156.63,63.24 L 159.14000000000001,63.24 L 161.65,63.24 L 164.16,63.24 L 166.67000000000002,63.24 L 169.17000000000002,63.24 L 171.68,63.24 L 174.19,63.24 L 176.70000000000002,63.24 L 179.21,63.24 L 181.72,63.24 L 184.23,63.24 L 186.74,63.24 L 189.24,63.24 L 191.75,63.24 L 194.26,63.24 L 196.77,63.24 L 199.28,63.24 L 201.79,63.24 L 204.3,63.24 L 204.3,63.24 L 206.81,63.24 L 209.31,63.24 L 211.82,63.24 L 214.33,63.24 L 216.84,63.24 L 219.35,63.24 L 221.86,63.24 L 224.37,63.24 L 226.88,63.24 L 229.38,63.24 L 231.89000000000001,63.24 L 234.4,63.24 L 236.91,63.24 L 239.42000000000002,63.24 L 241.93,63.24 L 244.44,63.24 L 246.95000000000002,63.24 L 249.45000000000002,63.24 L 251.96,63.24 L 254.47,63.24 L 256.98,63.24 L 259.49,63.24 L 262,63.24 L 264.51,63.24 L 267.02,63.24 L 269.53000000000003,63.24 L 272.03000000000003,63.24 L 274.54,63.24 L 277.05,63.24 L 279.56,63.24 L 282.07,63.24 L 284.58,63.24 L 287.09000000000003,63.24 L 289.6,63.24 L 292.1,63.24 L 294.61,63.24 L 297.12,63.24 L 299.63,63.24 L 302.14,63.24 L 304.65000000000003,63.24 L 307.16,63.24 L 309.67,63.24 L 312.17,63.24 L 314.68,63.24 L 317.19,63.24 L 319.7,63.24 L 322.21,63.24 L 324.72,63.24 L 327.23,63.24 L 329.74,63.24 L 332.24,63.24 L 334.75,63.24 L 337.26,63.24 L 339.77,63.24 L 342.28000000000003,63.24 L 344.79,63.24 L 347.3,63.24 L 349.81,63.24 L 352.31,63.24 L 354.82,63.24 L 357.33,63.24 L 359.84000000000003,63.24 L 362.35,63.24 L 362.35,68.24 L 359.84000000000003,68.24 L 357.33,68.24 L 354.82,68.24 L 352.31,68.24 L 349.81,68.24 L 347.3,68.24 L 344.79,68.24 L 342.28000000000003,68.24 L 339.77,68.24 L 337.26,68.24 L 334.75,68.24 L 332.24,68.24 L 329.74,68.24 L 327.23,68.24 L 324.72,68.24 L 322.21,68.24 L 319.7,68.24 L 317.19,68.24 L 314.68,68.24 L 312.17,68.24 L 309.67,68.24 L 307.16,68.24 L 304.65000000000003,68.24 L 302.14,68.24 L 299.63,68.24 L 297.12,68.24 L 294.61,68.24 L 292.1,68.24 L 289.6,68.24 L 287.09000000000003,68.24 L 284.58,68.24 L 282.07,68.24 L 279.56,68.24 L 277.05,68.24 L 274.54,68.24 L 272.03000000000003,68.24 L 269.53000000000003,68.24 L 267.02,68.24 L 264.51,68.24 L 262,68.24 L 259.49,68.24 L 256.98,68.24 L 254.47,68.24 L 251.96,68.24 L 249.45000000000002,68.24 L 246.95000000000002,68.24 L 244.44,68.24 L 241.93,68.24 L 239.42000000000002,68.24 L 236.91,68.24 L 234.4,68.24 L 231.89000000000001,68.24 L 229.38,68.24 L 226.88,68.24 L 224.37,68.24 L 221.86,68.24 L 219.35,68.24 L 216.84,68.24 L 214.33,68.24 L 211.82,68.24 L 209.31,68.24 L 206.81,68.24 L 204.3,68.24 L 204.3,70.95 L 201.79,70.95 L 199.28,70.95 L 196.77,70.95 L 194.26,70.95 L 191.75,70.95 L 189.24,70.95 L 186.74,70.95 L 184.23,70.95 L 181.72,70.95 L 179.21,70.95 L 176.70000000000002,70.95 L 174.19,70.95 L 171.68,70.95 L 169.17000000000002,70.95 L 166.67000000000002,70.95 L 164.16,70.95 L 161.65,70.95 L 159.14000000000001,70.95 L 156.63,70.95 L 154.12,70.95 L 154.12,73.67 L 151.61,73.67 L 149.1,73.67 L 146.6,73.67 L 144.09,73.67 L 141.58,73.67 L 139.07,73.67 L 136.56,73.67 L 134.05,73.67 L 131.54,73.67 L 129.03,73.67 L 129.03,76.38 L 126.52,76.38 L 124.02,76.38 L 121.51,76.38 L 119,76.38 L 116.49000000000001,76.38 L 113.98,76.38 L 113.98,79.10000000000001 L 111.47,79.10000000000001 L 108.96000000000001,79.10000000000001 L 106.45,79.10000000000001 L 103.95,79.10000000000001 L 103.95,81.81 L 101.44,81.81 L 98.93,81.81 L 98.93,84.53 L 96.42,84.53 L 93.91,84.53 L 93.91,87.24 L 91.4,87.24 L 88.89,87.24 L 88.89,89.96000000000001 L 86.38,89.96000000000001 L 86.38,92.67 L 83.88,92.67 L 83.88,95.39 L 81.37,95.39 L 81.37,98.10000000000001 L 78.86,98.10000000000001 L 78.86,100.81 L 78.86,103.53 L 76.35000000000001,103.53 L 76.35000000000001,106.24000000000001 L 76.35000000000001,108.96000000000001 L 73.84,108.96000000000001 L 73.84,111.67 L 73.84,114.39 L 71.33,114.39 L 71.33,117.10000000000001 L 71.33,119.82000000000001 L 71.33,122.53 L 71.33,125.25 L 68.82000000000001,125.25 L 68.82000000000001,127.96000000000001 L 68.82000000000001,130.68 L 68.82000000000001,133.39000000000001 L 68.82000000000001,136.11 L 68.82000000000001,138.82 L 68.82000000000001,141.53 L 66.31,141.53 L 66.31,144.25 L 66.31,146.96 L 66.31,149.68 L 66.31,152.39000000000001 L 66.31,155.11 L 66.31,157.82 L 66.31,160.54 L 66.31,163.25 L 66.31,165.97 L 66.31,168.68 L 63.81,168.68 L 63.81,171.4 L 63.81,174.11 L 63.81,176.83 L 63.81,179.54 L 63.81,182.25 L 63.81,184.97 L 63.81,187.68 L 63.81,190.4 L 63.81,193.11 L 63.81,195.83 L 63.81,198.54 L 63.81,201.26 L 63.81,203.97 L 63.81,206.69 L 63.81,209.4 L 63.81,212.12 L 63.81,214.83 L 63.81,217.55 L 63.81,220.26 L 63.81,222.97 L 61.300000000000004,222.97 L 61.300000000000004,225.69 L 61.300000000000004,228.4 L 61.300000000000004,231.12 L 61.300000000000004,233.83 L 61.300000000000004,236.55 L 61.300000000000004,239.26 L 61.300000000000004,241.98000000000002 L 61.300000000000004,244.69 L 61.300000000000004,247.41 L 61.300000000000004,250.12 L 61.300000000000004,252.84 L 61.300000000000004,255.55 L 61.300000000000004,258.26 L 61.300000000000004,260.98 L 61.300000000000004,263.69 L 61.300000000000004,266.41 L 61.300000000000004,269.12 L 61.300000000000004,271.84000000000003 L 61.300000000000004,274.55 L 61.300000000000004,277.27 L 61.300000000000004,279.98 L 61.300000000000004,282.7 L 61.300000000000004,285.41 L 61.300000000000004,288.13 L 61.300000000000004,290.84000000000003 L 61.300000000000004,293.56 L 61.300000000000004,296.27 L 61.300000000000004,298.98 L 61.300000000000004,301.7 L 61.300000000000004,304.41 L 61.300000000000004,307.13 L 61.300000000000004,309.84000000000003 L 61.300000000000004,312.56 L 61.300000000000004,315.27 L 61.300000000000004,317.99 L 61.300000000000004,320.7 L 61.300000000000004,323.42 L 61.300000000000004,326.13 L 61.300000000000004,328.85 L 61.300000000000004,331.56 L 61.300000000000004,334.28000000000003 L 61.300000000000004,336.99 L 61.300000000000004,339.7 L 61.300000000000004,342.42 L 61.300000000000004,345.13 L 61.300000000000004,347.85 L 61.300000000000004,350.56 L 61.300000000000004,353.28000000000003 L 61.300000000000004,355.99 L 61.300000000000004,358.71 L 61.300000000000004,361.42 L 61.300000000000004,364.14 L 61.300000000000004,366.85 L 61.300000000000004,369.57 L 61.300000000000004,372.28000000000003 L 61.300000000000004,375 L 61.300000000000004,377.71 L 61.300000000000004,380.42 L 61.300000000000004,383.14 L 61.300000000000004,385.85 L 61.300000000000004,388.57 L 61.300000000000004,389 L 61.300000000000004,389 Z" stroke="none" stroke-width="0" fill="#1f77b4" fill-opacity="0.15" /><path d="M 61.300000000000004,389 L 61.300000000000004,386.29 L 61.300000000000004,383.57 L 61.300000000000004,380.86 L 61.300000000000004,378.14 L 61.300000000000004,375.43 L 61.300000000000004,372.71 L 61.300000000000004,370 L 61.300000000000004,367.28000000000003 L 61.300000000000004,364.57 L 61.300000000000004,361.85 L 61.300000000000004,359.14 L 61.300000000000004,356.42 L 61.300000000000004,353.71 L 61.300000000000004,350.99 L 61.300000000000004,348.28000000000003 L 61.300000000000004,345.57 L 61.300000000000004,342.85 L 61.300000000000004,340.14 L 61.300000000000004,337.42 L 61.300000000000004,334.71 L 61.300000000000004,331.99 L 61.300000000000004,329.28000000000003 L 61.300000000000004,326.56 L 61.300000000000004,323.85 L 61.300000000000004,321.13 L 61.300000000000004,318.42 L 61.300000000000004,315.7 L 61.300000000000004,312.99 L 61.300000000000004,310.27 L 61.300000000000004,307.56 L 61.300000000000004,304.85 L 61.300000000000004,302.13 L 61.300000000000004,299.42 L 61.300000000000004,296.7 L 61.300000000000004,293.99 L 61.300000000000004,291.27 L 61.300000000000004,288.56 L 61.300000000000004,285.84000000000003 L 61.300000000000004,283.13 L 61.300000000000004,280.41 L 61.300000000000004,277.7 L 61.300000000000004,274.98 L 61.300000000000004,272.27 L 61.300000000000004,269.56 L 61.300000000000004,266.84000000000003 L 61.300000000000004,264.13 L 61.300000000000004,261.41 L 61.300000000000004,258.7 L 61.300000000000004,255.98000000000002 L 61.300000000000004,253.27 L 61.300000000000004,250.55 L 61.300000000000004,247.84 L 61.300000000000004,245.12 L 61.300000000000004,242.41 L 61.300000000000004,239.69 L 61.300000000000004,236.98000000000002 L 61.300000000000004,234.26 L 61.300000000000004,231.55 L 61.300000000000004,228.84 L 61.300000000000004,226.12 L 61.300000000000004,223.41 L 61.300000000000004,220.69 L 61.300000000000004,217.98000000000002 L 63.81,217.98000000000002 L 63.81,215.26 L 63.81,212.55 L 63.81,209.83 L 63.81,207.12 L 63.81,204.4 L 63.81,201.69 L 63.81,198.97 L 63.81,196.26 L 63.81,193.54 L 63.81,190.83 L 63.81,188.12 L 63.81,185.4 L 63.81,182.69 L 63.81,179.97 L 63.81,177.26 L 63.81,174.54 L 63.81,171.83 L 63.81,169.11 L 63.81,166.4 L 63.81,163.68 L 66.31,163.68 L 66.31,160.97 L 66.31,158.25 L 66.31,155.54 L 66.31,152.82 L 66.31,150.11 L 66.31,147.4 L 66.31,144.68 L 66.31,141.97 L 66.31,139.25 L 66.31,136.54 L 68.82000000000001,136.54 L 68.82000000000001,133.82 L 68.82000000000001,131.11 L 68.82000000000001,128.39000000000001 L 68.82000000000001,125.68 L 68.82000000000001,122.96000000000001 L 68.82000000000001,120.25 L 71.33,120.25 L 71.33,117.53 L 71.33,114.82000000000001 L 71.33,112.10000000000001 L 71.33,109.39 L 73.84,109.39 L 73.84,106.68 L 73.84,103.96000000000001 L 76.35000000000001,103.96000000000001 L 76.35000000000001,101.25 L 76.35000000000001,98.53 L 78.86,98.53 L 78.86,95.82000000000001 L 78.86,93.10000000000001 L 81.37,93.10000000000001 L 81.37,90.39 L 83.88,90.39 L 83.88,87.67 L 86.38,87.67 L 86.38,84.96000000000001 L 88.89,84.96000000000001 L 88.89,82.24 L 91.4,82.24 L 93.91,82.24 L 93.91,79.53 L 96.42,79.53 L 98.93,79.53 L 98.93,76.81 L 101.44,76.81 L 103.95,76.81 L 103.95,74.10000000000001 L 106.45,74.10000000000001 L 108.96000000000001,74.10000000000001 L 111.47,74.10000000000001 L 113.98,74.10000000000001 L 113.98,71.39 L 116.49000000000001,71.39 L 119,71.39 L 121.51,71.39 L 124.02,71.39 L 126.52,71.39 L 129.03,71.39 L 129.03,68.67 L 131.54,68.67 L 134.05,68.67 L 136.56,68.67 L 139.07,68.67 L 141.58,68.67 L 144.09,68.67 L 146.6,68.67 L 149.1,68.67 L 151.61,68.67 L 154.12,68.67 L 154.12,65.96000000000001 L 156.63,65.96000000000001 L 159.14000000000001,65.96000000000001 L 161.65,65.96000000000001 L 164.16,65.96000000000001 L 166.67000000000002,65.96000000000001 L 169.17000000000002,65.96000000000001 L 171.68,65.96000000000001 L 174.19,65.96000000000001 L 176.70000000000002,65.96000000000001 L 179.21,65.96000000000001 L 181.72,65.96000000000001 L 184.23,65.96000000000001 L 186.74,65.96000000000001 L 189.24,65.96000000000001 L 191.75,65.96000000000001 L 194.26,65.96000000000001 L 196.77,65.96000000000001 L 199.28,65.96000000000001 L 201.79,65.96000000000001 L 204.3,65.96000000000001 L 204.3,63.24 L 206.81,63.24 L 209.31,63.24 L 211.82,63.24 L 214.33,63.24 L 216.84,63.24 L 219.35,63.24 L 221.86,63.24 L 224.37,63.24 L 226.88,63.24 L 229.38,63.24 L 231.89000000000001,63.24 L 234.4,63.24 L 236.91,63.24 L 239.42000000000002,63.24 L 241.93,63.24 L 244.44,63.24 L 246.95000000000002,63.24 L 249.45000000000002,63.24 L 251.96,63.24 L 254.47,63.24 L 256.98,63.24 L 259.49,63.24 L 262,63.24 L 264.51,63.24 L 267.02,63.24 L 269.53000000000003,63.24 L 272.03000000000003,63.24 L 274.54,63.24 L 277.05,63.24 L 279.56,63.24 L 282.07,63.24 L 284.58,63.24 L 287.09000000000003,63.24 L 289.6,63.24 L 292.1,63.24 L 294.61,63.24 L 297.12,63.24 L 299.63,63.24 L 302.14,63.24 L 304.65000000000003,63.24 L 307.16,63.24 L 309.67,63.24 L 312.17,63.24 L 314.68,63.24 L 317.19,63.24 L 319.7,63.24 L 322.21,63.24 L 324.72,63.24 L 327.23,63.24 L 329.74,63.24 L 332.24,63.24 L 334.75,63.24 L 337.26,63.24 L 339.77,63.24 L 342.28000000000003,63.24 L 344.79,63.24 L 347.3,63.24 L 349.81,63.24 L 352.31,63.24 L 354.82,63.24 L 357.33,63.24 L 359.84000000000003,63.24 L 362.35,63.24" stroke="#1f77b4" stroke-width="2" fill="none" /><circle cx="83.88" cy="87.67" r="5" fill="#1f77b4" stroke="#ffffff" stroke-width="1" /><path d="M 61.300000000000004,374.83 L 61.300000000000004,372.11 L 61.300000000000004,369.40000000000003 L 61.300000000000004,366.68 L 61.300000000000004,363.97 L 61.300000000000004,361.25 L 61.300000000000004,358.54 L 61.300000000000004,355.82 L 61.300000000000004,353.11 L 61.300000000000004,350.39 L 61.300000000000004,347.68 L 61.300000000000004,344.97 L 61.300000000000004,342.25 L 61.300000000000004,339.54 L 61.300000000000004,336.82 L 63.81,336.82 L 63.81,334.11 L 63.81,331.39 L 63.81,328.68 L 63.81,325.96 L 63.81,323.25 L 63.81,320.53000000000003 L 63.81,317.82 L 63.81,315.1 L 63.81,312.39 L 63.81,309.67 L 63.81,306.96 L 63.81,304.25 L 66.31,304.25 L 66.31,301.53000000000003 L 66.31,298.82 L 66.31,296.1 L 66.31,293.39 L 66.31,290.67 L 66.31,287.96 L 66.31,285.24 L 66.31,282.53000000000003 L 66.31,279.81 L 68.82000000000001,279.81 L 68.82000000000001,277.1 L 68.82000000000001,274.38 L 68.82000000000001,271.67 L 68.82000000000001,268.95 L 68.82000000000001,266.24 L 68.82000000000001,263.53000000000003 L 68.82000000000001,260.81 L 68.82000000000001,258.1 L 71.33,258.1 L 71.33,255.38 L 71.33,252.67000000000002 L 71.33,249.95000000000002 L 71.33,247.24 L 71.33,244.52 L 71.33,241.81 L 71.33,239.09 L 73.84,239.09 L 73.84,236.38 L 73.84,233.66 L 73.84,230.95000000000002 L 73.84,228.23000000000002 L 73.84,225.52 L 76.35000000000001,225.52 L 76.35000000000001,222.81 L 76.35000000000001,220.09 L 76.35000000000001,217.38 L 76.35000000000001,214.66 L 76.35000000000001,211.95000000000002 L 78.86,211.95000000000002 L 78.86,209.23000000000002 L 78.86,206.52 L 78.86,203.8 L 78.86,201.09 L 78.86,198.37 L 81.37,198.37 L 81.37,195.66 L 81.37,192.94 L 81.37,190.23 L 83.88,190.23 L 83.88,187.51 L 83.88,184.8 L 83.88,182.09 L 83.88,179.37 L 86.38,179.37 L 86.38,176.66 L 86.38,173.94 L 86.38,171.23 L 88.89,171.23 L 88.89,168.51 L 88.89,165.8 L 91.4,165.8 L 91.4,163.08 L 91.4,160.37 L 91.4,157.65 L 93.91,157.65 L 93.91,154.94 L 93.91,152.22 L 96.42,152.22 L 96.42,149.51 L 96.42,146.8 L 98.93,146.8 L 98.93,144.08 L 98.93,141.37 L 101.44,141.37 L 101.44,138.65 L 101.44,135.94 L 103.95,135.94 L 103.95,133.22 L 106.45,133.22 L 106.45,130.51 L 106.45,127.79 L 108.96000000000001,127.79 L 108.96000000000001,125.08 L 111.47,125.08 L 111.47,122.36 L 113.98,122.36 L 113.98,119.65 L 113.98,116.93 L 116.49000000000001,116.93 L 116.49000000000001,114.22 L 119,114.22 L 119,111.5 L 121.51,111.5 L 121.51,108.79 L 124.02,108.79 L 124.02,106.08 L 126.52,106.08 L 129.03,106.08 L 129.03,103.36 L 131.54,103.36 L 131.54,100.65 L 134.05,100.65 L 134.05,97.93 L 136.56,97.93 L 139.07,97.93 L 139.07,95.22 L 141.58,95.22 L 141.58,92.5 L 144.09,92.5 L 146.6,92.5 L 146.6,89.79 L 149.1,89.79 L 151.61,89.79 L 151.61,87.07000000000001 L 154.12,87.07000000000001 L 156.63,87.07000000000001 L 156.63,84.36 L 159.14000000000001,84.36 L 161.65,84.36 L 161.65,81.64 L 164.16,81.64 L 166.67000000000002,81.64 L 169.17000000000002,81.64 L 169.17000000000002,78.93 L 171.68,78.93 L 174.19,78.93 L 174.19,76.21000000000001 L 176.70000000000002,76.21000000000001 L 179.21,76.21000000000001 L 181.72,76.21000000000001 L 181.72,73.5 L 184.23,73.5 L 186.74,73.5 L 189.24,73.5 L 191.75,73.5 L 191.75,70.78 L 194.26,70.78 L 196.77,70.78 L 199.28,70.78 L 199.28,68.07000000000001 L 201.79,68.07000000000001 L 204.3,68.07000000000001 L 206.81,68.07000000000001 L 209.31,68.07000000000001 L 211.82,68.07000000000001 L 211.82,65.36 L 214.33,65.36 L 216.84,65.36 L 219.35,65.36 L 221.86,65.36 L 224.37,65.36 L 224.37,63.24 L 226.88,63.24 L 229.38,63.24 L 231.89000000000001,63.24 L 234.4,63.24 L 236.91,63.24 L 236.91,63.24 L 239.42000000000002,63.24 L 241.93,63.24 L 244.44,63.24 L 246.95000000000002,63.24 L 249.45000000000002,63.24 L 251.96,63.24 L 254.47,63.24 L 254.47,63.24 L 256.98,63.24 L 259.49,63.24 L 262,63.24 L 264.51,63.24 L 267.02,63.24 L 269.53000000000003,63.24 L 272.03000000000003,63.24 L 274.54,63.24 L 274.54,63.24 L 277.05,63.24 L 279.56,63.24 L 282.07,63.24 L 284.58,63.24 L 287.09000000000003,63.24 L 289.6,63.24 L 292.1,63.24 L 294.61,63.24 L 297.12,63.24 L 297.12,63.24 L 299.63,63.24 L 302.14,63.24 L 304.65000000000003,63.24 L 307.16,63.24 L 309.67,63.24 L 312.17,63.24 L 314.68,63.24 L 317.19,63.24 L 319.7,63.24 L 322.21,63.24 L 324.72,63.24 L 327.23,63.24 L 327.23,63.24 L 329.74,63.24 L 332.24,63.24 L 334.75,63.24 L 337.26,63.24 L 339.77,63.24 L 342.28000000000003,63.24 L 344.79,63.24 L 347.3,63.24 L 349.81,63.24 L 352.31,63.24 L 354.82,63.24 L 357.33,63.24 L 359.84000000000003,63.24 L 362.35,63.24 L 362.35,77.41 L 359.84000000000003,77.41 L 357.33,77.41 L 354.82,77.41 L 352.31,77.41 L 349.81,77.41 L 347.3,77.41 L 344.79,77.41 L 342.28000000000003,77.41 L 339.77,77.41 L 337.26,77.41 L 334.75,77.41 L 332.24,77.41 L 329.74,77.41 L 327.23,77.41 L 327.23,80.13 L 324.72,80.13 L 322.21,80.13 L 319.7,80.13 L 317.19,80.13 L 314.68,80.13 L 312.17,80.13 L 309.67,80.13 L 307.16,80.13 L 304.65000000000003,80.13 L 302.14,80.13 L 299.63,80.13 L 297.12,80.13 L 297.12,82.84 L 294.61,82.84 L 292.1,82.84 L 289.6,82.84 L 287.09000000000003,82.84 L 284.58,82.84 L 282.07,82.84 L 279.56,82.84 L 277.05,82.84 L 274.54,82.84 L 274.54,85.56 L 272.03000000000003,85.56 L 269.53000000000003,85.56 L 267.02,85.56 L 264.51,85.56 L 262,85.56 L 259.49,85.56 L 256.98,85.56 L 254.47,85.56 L 254.47,88.27 L 251.96,88.27 L 249.45000000000002,88.27 L 246.95000000000002,88.27 L 244.44,88.27 L 241.93,88.27 L 239.42000000000002,88.27 L 236.91,88.27 L 236.91,90.99 L 234.4,90.99 L 231.89000000000001,90.99 L 229.38,90.99 L 226.88,90.99 L 224.37,90.99 L 224.37,93.7 L 221.86,93.7 L 219.35,93.7 L 216.84,93.7 L 214.33,93.7 L 211.82,93.7 L 211.82,96.42 L 209.31,96.42 L 206.81,96.42 L 204.3,96.42 L 201.79,96.42 L 199.28,96.42 L 199.28,99.13 L 196.77,99.13 L 194.26,99.13 L 191.75,99.13 L 191.75,101.85000000000001 L 189.24,101.85000000000001 L 186.74,101.85000000000001 L 184.23,101.85000000000001 L 181.72,101.85000000000001 L 181.72,104.56 L 179.21,104.56 L 176.70000000000002,104.56 L 174.19,104.56 L 174.19,107.28 L 171.68,107.28 L 169.17000000000002,107.28 L 169.17000000000002,109.99000000000001 L 166.67000000000002,109.99000000000001 L 164.16,109.99000000000001 L 161.65,109.99000000000001 L 161.65,112.71000000000001 L 159.14000000000001,112.71000000000001 L 156.63,112.71000000000001 L 156.63,115.42 L 154.12,115.42 L 151.61,115.42 L 151.61,118.13 L 149.1,118.13 L 146.6,118.13 L 146.6,120.85000000000001 L 144.09,120.85000000000001 L 141.58,120.85000000000001 L 141.58,123.56 L 139.07,123.56 L 139.07,126.28 L 136.56,126.28 L 134.05,126.28 L 134.05,128.99 L 131.54,128.99 L 131.54,131.71 L 129.03,131.71 L 129.03,134.42000000000002 L 126.52,134.42000000000002 L 124.02,134.42000000000002 L 124.02,137.14000000000001 L 121.51,137.14000000000001 L 121.51,139.85 L 119,139.85 L 119,142.57 L 116.49000000000001,142.57 L 116.49000000000001,145.28 L 113.98,145.28 L 113.98,148 L 113.98,150.71 L 111.47,150.71 L 111.47,153.43 L 108.96000000000001,153.43 L 108.96000000000001,156.14000000000001 L 106.45,156.14000000000001 L 106.45,158.85 L 106.45,161.57 L 103.95,161.57 L 103.95,164.28 L 101.44,164.28 L 101.44,167 L 101.44,169.71 L 98.93,169.71 L 98.93,172.43 L 98.93,175.14000000000001 L 96.42,175.14000000000001 L 96.42,177.86 L 96.42,180.57 L 93.91,180.57 L 93.91,183.29 L 93.91,186 L 91.4,186 L 91.4,188.72 L 91.4,191.43 L 91.4,194.15 L 88.89,194.15 L 88.89,196.86 L 88.89,199.57 L 86.38,199.57 L 86.38,202.29 L 86.38,205 L 86.38,207.72 L 83.88,207.72 L 83.88,210.43 L 83.88,213.15 L 83.88,215.86 L 83.88,218.58 L 81.37,218.58 L 81.37,221.29 L 81.37,224.01 L 81.37,226.72 L 78.86,226.72 L 78.86,229.44 L 78.86,232.15 L 78.86,234.86 L 78.86,237.58 L 78.86,240.29 L 76.35000000000001,240.29 L 76.35000000000001,243.01 L 76.35000000000001,245.72 L 76.35000000000001,248.44 L 76.35000000000001,251.15 L 76.35000000000001,253.87 L 73.84,253.87 L 73.84,256.58 L 73.84,259.3 L 73.84,262.01 L 73.84,264.73 L 73.84,267.44 L 71.33,267.44 L 71.33,270.16 L 71.33,272.87 L 71.33,275.58 L 71.33,278.3 L 71.33,281.01 L 71.33,283.73 L 71.33,286.44 L 68.82000000000001,286.44 L 68.82000000000001,289.16 L 68.82000000000001,291.87 L 68.82000000000001,294.59000000000003 L 68.82000000000001,297.3 L 68.82000000000001,300.02 L 68.82000000000001,302.73 L 68.82000000000001,305.45 L 68.82000000000001,308.16 L 66.31,308.16 L 66.31,310.88 L 66.31,313.59000000000003 L 66.31,316.3 L 66.31,319.02 L 66.31,321.73 L 66.31,324.45 L 66.31,327.16 L 66.31,329.88 L 66.31,332.59000000000003 L 63.81,332.59000000000003 L 63.81,335.31 L 63.81,338.02 L 63.81,340.74 L 63.81,343.45 L 63.81,346.17 L 63.81,348.88 L 63.81,351.6 L 63.81,354.31 L 63.81,357.02 L 63.81,359.74 L 63.81,362.45 L 63.81,365.17 L 61.300000000000004,365.17 L 61.300000000000004,367.88 L 61.300000000000004,370.6 L 61.300000000000004,373.31 L 61.300000000000004,376.03000000000003 L 61.300000000000004,378.74 L 61.300000000000004,381.46 L 61.300000000000004,384.17 L 61.300000000000004,386.89 L 61.300000000000004,389 L 61.300000000000004,389 L 61.300000000000004,389 L 61.300000000000004,389 L 61.300000000000004,389 L 61.300000000000004,389 Z" stroke="none" stroke-width="0" fill="#ff7f0e" fill-opacity="0.15" /><path d="M 61.300000000000004,389 L 61.300000000000004,386.29 L 61.300000000000004,383.57 L 61.300000000000004,380.86 L 61.300000000000004,378.14 L 61.300000000000004,375.43 L 61.300000000000004,372.71 L 61.300000000000004,370 L 61.300000000000004,367.28000000000003 L 61.300000000000004,364.57 L 61.300000000000004,361.85 L 61.300000000000004,359.14 L 61.300000000000004,356.42 L 61.300000000000004,353.71 L 61.300000000000004,350.99 L 63.81,350.99 L 63.81,348.28000000000003 L 63.81,345.57 L 63.81,342.85 L 63.81,340.14 L 63.81,337.42 L 63.81,334.71 L 63.81,331.99 L 63.81,329.28000000000003 L 63.81,326.56 L 63.81,323.85 L 63.81,321.13 L 63.81,318.42 L 66.31,318.42 L 66.31,315.7 L 66.31,312.99 L 66.31,310.27 L 66.31,307.56 L 66.31,304.85 L 66.31,302.13 L 66.31,299.42 L 66.31,296.7 L 66.31,293.99 L 68.82000000000001,293.99 L 68.82000000000001,291.27 L 68.82000000000001,288.56 L 68.82000000000001,285.84000000000003 L 68.82000000000001,283.13 L 68.82000000000001,280.41 L 68.82000000000001,277.7 L 68.82000000000001,274.98 L 68.82000000000001,272.27 L 71.33,272.27 L 71.33,269.56 L 71.33,266.84000000000003 L 71.33,264.13 L 71.33,261.41 L 71.33,258.7 L 71.33,255.98000000000002 L 71.33,253.27 L 73.84,253.27 L 73.84,250.55 L 73.84,247.84 L 73.84,245.12 L 73.84,242.41 L 73.84,239.69 L 76.35000000000001,239.69 L 76.35000000000001,236.98000000000002 L 76.35000000000001,234.26 L 76.35000000000001,231.55 L 76.35000000000001,228.84 L 76.35000000000001,226.12 L 78.86,226.12 L 78.86,223.41 L 78.86,220.69 L 78.86,217.98000000000002 L 78.86,215.26 L 78.86,212.55 L 81.37,212.55 L 81.37,209.83 L 81.37,207.12 L 81.37,204.4 L 83.88,204.4 L 83.88,201.69 L 83.88,198.97 L 83.88,196.26 L 83.88,193.54 L 86.38,193.54 L 86.38,190.83 L 86.38,188.12 L 86.38,185.4 L 88.89,185.4 L 88.89,182.69 L 88.89,179.97 L 91.4,179.97 L 91.4,177.26 L 91.4,174.54 L 91.4,171.83 L 93.91,171.83 L 93.91,169.11 L 93.91,166.4 L 96.42,166.4 L 96.42,163.68 L 96.42,160.97 L 98.93,160.97 L 98.93,158.25 L 98.93,155.54 L 101.44,155.54 L 101.44,152.82 L 101.44,150.11 L 103.95,150.11 L 103.95,147.4 L 106.45,147.4 L 106.45,144.68 L 106.45,141.97 L 108.96000000000001,141.97 L 108.96000000000001,139.25 L 111.47,139.25 L 111.47,136.54 L 113.98,136.54 L 113.98,133.82 L 113.98,131.11 L 116.49000000000001,131.11 L 116.49000000000001,128.39000000000001 L 119,128.39000000000001 L 119,125.68 L 121.51,125.68 L 121.51,122.96000000000001 L 124.02,122.96000000000001 L 124.02,120.25 L 126.52,120.25 L 129.03,120.25 L 129.03,117.53 L 131.54,117.53 L 131.54,114.82000000000001 L 134.05,114.82000000000001 L 134.05,112.10000000000001 L 136.56,112.10000000000001 L 139.07,112.10000000000001 L 139.07,109.39 L 141.58,109.39 L 141.58,106.68 L 144.09,106.68 L 146.6,106.68 L 146.6,103.96000000000001 L 149.1,103.96000000000001 L 151.61,103.96000000000001 L 151.61,101.25 L 154.12,101.25 L 156.63,101.25 L 156.63,98.53 L 159.14000000000001,98.53 L 161.65,98.53 L 161.65,95.82000000000001 L 164.16,95.82000000000001 L 166.67000000000002,95.82000000000001 L 169.17000000000002,95.82000000000001 L 169.17000000000002,93.10000000000001 L 171.68,93.10000000000001 L 174.19,93.10000000000001 L 174.19,90.39 L 176.70000000000002,90.39 L 179.21,90.39 L 181.72,90.39 L 181.72,87.67 L 184.23,87.67 L 186.74,87.67 L 189.24,87.67 L 191.75,87.67 L 191.75,84.96000000000001 L 194.26,84.96000000000001 L 196.77,84.96000000000001 L 199.28,84.96000000000001 L 199.28,82.24 L 201.79,82.24 L 204.3,82.24 L 206.81,82.24 L 209.31,82.24 L 211.82,82.24 L 211.82,79.53 L 214.33,79.53 L 216.84,79.53 L 219.35,79.53 L 221.86,79.53 L 224.37,79.53 L 224.37,76.81 L 226.88,76.81 L 229.38,76.81 L 231.89000000000001,76.81 L 234.4,76.81 L 236.91,76.81 L 236.91,74.10000000000001 L 239.42000000000002,74.10000000000001 L 241.93,74.10000000000001 L 244.44,74.10000000000001 L 246.95000000000002,74.10000000000001 L 249.45000000000002,74.10000000000001 L 251.96,74.10000000000001 L 254.47,74.10000000000001 L 254.47,71.39 L 256.98,71.39 L 259.49,71.39 L 262,71.39 L 264.51,71.39 L 267.02,71.39 L 269.53000000000003,71.39 L 272.03000000000003,71.39 L 274.54,71.39 L 274.54,68.67 L 277.05,68.67 L 279.56,68.67 L 282.07,68.67 L 284.58,68.67 L 287.09000000000003,68.67 L 289.6,68.67 L 292.1,68.67 L 294.61,68.67 L 297.12,68.67 L 297.12,65.96000000000001 L 299.63,65.96000000000001 L 302.14,65.96000000000001 L 304.65000000000003,65.96000000000001 L 307.16,65.96000000000001 L 309.67,65.96000000000001 L 312.17,65.96000000000001 L 314.68,65.96000000000001 L 317.19,65.96000000000001 L 319.7,65.96000000000001 L 322.21,65.96000000000001 L 324.72,65.96000000000001 L 327.23,65.96000000000001 L 327.23,63.24 L 329.74,63.24 L 332.24,63.24 L 334.75,63.24 L 337.26,63.24 L 339.77,63.24 L 342.28000000000003,63.24 L 344.79,63.24 L 347.3,63.24 L 349.81,63.24 L 352.31,63.24 L 354.82,63.24 L 357.33,63.24 L 359.84000000000003,63.24 L 362.35,63.24" stroke="#ff7f0e" stroke-width="2" fill="none" /></g><rect x="382.40000000000003" y="36.95" width="208.6" height="50" fill="#ffffff" /><rect x="382.40000000000003" y="36.95" width="208.6" height="50" fill="none" stroke="#000000" stroke-width="1" /><text x="412.40000000000003" y="57.33" font-size="12" text-anchor="start">Biomarker A  (AUC = 0.977)</text><line x1="392.40000000000003" y1="52.95" x2="404.40000000000003" y2="52.95" stroke="#1f77b4" stroke-width="2" /><text x="412.40000000000003" y="75.33" font-size="12" text-anchor="start">Biomarker B  (AUC = 0.878)</text><line x1="392.40000000000003" y1="70.95" x2="404.40000000000003" y2="70.95" stroke="#ff7f0e" stroke-width="2" /></svg>