<svg xmlns="http://www.w3.org/2000/svg" width="560" height="360" font-family="DejaVu Sans, Verdana, Liberation Sans, Arial, sans-serif" fill="black"><rect width="100%" height="100%" fill="white" /><text x="303.65000000000003" y="29.71" font-size="18" text-anchor="middle">Clinical Trial Enrollment</text><text x="182.47" y="40.95" font-size="12" text-anchor="middle" font-weight="bold">Treatment</text><text x="424.82" y="40.95" font-size="12" text-anchor="middle" font-weight="bold">Control</text><line x1="303.65000000000003" y1="46.95" x2="303.65000000000003" y2="309" stroke="#cccccc" stroke-width="1" stroke-dasharray="4,3" /><rect x="221.47" y="46.95" width="82.18" height="62.51" fill="#1f77b4" /><path d="M 221.47,109.46 L 303.65,109.46 L 303.65,113.46 L 248.18,113.46 Z" stroke="none" stroke-width="0" fill="#1f77b4" fill-opacity="0.4" /><text x="262.56" y="82.22" font-size="11" text-anchor="middle" fill="#ffffff">800</text><text x="215.47" y="82.22" font-size="11" text-anchor="end">Screened</text><rect x="303.65000000000003" y="46.95" width="78.07000000000001" height="62.51" fill="#1f77b4" /><path d="M 303.65,109.46 L 381.72,109.46 L 353.98,113.46 L 303.65,113.46 Z" stroke="none" stroke-width="0" fill="#1f77b4" fill-opacity="0.4" /><text x="342.68" y="82.22" font-size="11" text-anchor="middle" fill="#ffffff">760</text><text x="391.83" y="82.22" font-size="11" text-anchor="start">Screened</text><rect x="248.18" y="113.46000000000001" width="55.47" height="62.51" fill="#1f77b4" /><path d="M 248.18,175.98 L 303.65,175.98 L 303.65,179.98 L 262.56,179.98 Z" stroke="none" stroke-width="0" fill="#1f77b4" fill-opacity="0.4" /><text x="248.18" y="148.73" font-size="11" text-anchor="end" fill="#333333">540</text><text x="215.47" y="148.73" font-size="11" text-anchor="end">Eligible</text><rect x="303.65000000000003" y="113.46000000000001" width="50.33" height="62.51" fill="#1f77b4" /><path d="M 303.65,175.98 L 353.98,175.98 L 342.68,179.98 L 303.65,179.98 Z" stroke="none" stroke-width="0" fill="#1f77b4" fill-opacity="0.4" /><text x="357.98" y="148.73" font-size="11" text-anchor="start" fill="#333333">490</text><text x="391.83" y="148.73" font-size="11" text-anchor="start">Eligible</text><rect x="262.56" y="179.98" width="41.09" height="62.51" fill="#1f77b4" /><path d="M 262.56,242.49 L 303.65,242.49 L 303.65,246.49 L 266.67,246.49 Z" stroke="none" stroke-width="0" fill="#1f77b4" fill-opacity="0.4" /><text x="262.56" y="215.24" font-size="11" text-anchor="end" fill="#333333">400</text><text x="215.47" y="215.24" font-size="11" text-anchor="end">Enrolled</text><rect x="303.65000000000003" y="179.98" width="39.03" height="62.51" fill="#1f77b4" /><path d="M 303.65,242.49 L 342.68,242.49 L 339.60,246.49 L 303.65,246.49 Z" stroke="none" stroke-width="0" fill="#1f77b4" fill-opacity="0.4" /><text x="346.68" y="215.24" font-size="11" text-anchor="start" fill="#333333">380</text><text x="391.83" y="215.24" font-size="11" text-anchor="start">Enrolled</text><rect x="266.67" y="246.49" width="36.980000000000004" height="62.51" fill="#1f77b4" /><text x="266.67" y="281.75" font-size="11" text-anchor="end" fill="#333333">360</text><text x="215.47" y="281.75" font-size="11" text-anchor="end">Completed</text><rect x="303.65000000000003" y="246.49" width="35.95" height="62.51" fill="#1f77b4" /><text x="343.6" y="281.75" font-size="11" text-anchor="start" fill="#333333">350</text><text x="391.83" y="281.75" font-size="11" text-anchor="start">Completed</text></svg>