<svg xmlns="http://www.w3.org/2000/svg" width="680" height="340" font-family="DejaVu Sans, Verdana, Liberation Sans, Arial, sans-serif" fill="black"><rect width="100%" height="100%" fill="white" /><defs><clipPath id="kuva-clip-3"><rect x="121.53" y="46.95" width="443.09000000000003" height="242.05"/></clipPath></defs><line x1="121.53" y1="289" x2="564.61" y2="289" stroke="#000000" stroke-width="1" /><line x1="121.53" y1="46.95" x2="121.53" y2="289" stroke="#000000" stroke-width="1" /><text x="113.53" y="282.37" font-size="12" text-anchor="end">Public launch</text><line x1="116.53" y1="278" x2="121.53" y2="278" stroke="#000000" stroke-width="1" /><text x="113.53" y="260.37" font-size="12" text-anchor="end">Testing</text><line x1="116.53" y1="255.99" x2="121.53" y2="255.99" stroke="#000000" stroke-width="1" /><text x="113.53" y="238.36" font-size="12" text-anchor="end">Launch</text><line x1="116.53" y1="233.99" x2="121.53" y2="233.99" stroke="#000000" stroke-width="1" /><text x="113.53" y="216.36" font-size="12" text-anchor="end">Code freeze</text><line x1="116.53" y1="211.99" x2="121.53" y2="211.99" stroke="#000000" stroke-width="1" /><text x="113.53" y="194.35" font-size="12" text-anchor="end">Integration</text><line x1="116.53" y1="189.98" x2="121.53" y2="189.98" stroke="#000000" stroke-width="1" /><text x="113.53" y="172.35" font-size="12" text-anchor="end">Core build</text><line x1="116.53" y1="167.98" x2="121.53" y2="167.98" stroke="#000000" stroke-width="1" /><text x="113.53" y="150.35" font-size="12" text-anchor="end">Execution</text><line x1="116.53" y1="145.97" x2="121.53" y2="145.97" stroke="#000000" stroke-width="1" /><text x="113.53" y="128.34" font-size="12" text-anchor="end">Sign-off</text><line x1="116.53" y1="123.97" x2="121.53" y2="123.97" stroke="#000000" stroke-width="1" /><text x="113.53" y="106.34" font-size="12" text-anchor="end">Architecture</text><line x1="116.53" y1="101.96000000000001" x2="121.53" y2="101.96000000000001" stroke="#000000" stroke-width="1" /><text x="113.53" y="84.33" font-size="12" text-anchor="end">Requirements</text><line x1="116.53" y1="79.96000000000001" x2="121.53" y2="79.96000000000001" stroke="#000000" stroke-width="1" /><text x="113.53" y="62.33" font-size="12" text-anchor="end">Planning</text><line x1="116.53" y1="57.96" x2="121.53" y2="57.96" stroke="#000000" stroke-width="1" /><line x1="121.53" y1="289" x2="121.53" y2="294" stroke="#000000" stroke-width="1" /><text x="121.53" y="305.14" font-size="12" text-anchor="middle">0</text><line x1="195.37" y1="289" x2="195.37" y2="294" stroke="#000000" stroke-width="1" /><text x="195.37" y="305.14" font-size="12" text-anchor="middle">2.5</text><line x1="269.22" y1="289" x2="269.22" y2="294" stroke="#000000" stroke-width="1" /><text x="269.22" y="305.14" font-size="12" text-anchor="middle">5</text><line x1="343.07" y1="289" x2="343.07" y2="294" stroke="#000000" stroke-width="1" /><text x="343.07" y="305.14" font-size="12" text-anchor="middle">7.5</text><line x1="416.92" y1="289" x2="416.92" y2="294" stroke="#000000" stroke-width="1" /><text x="416.92" y="305.14" font-size="12" text-anchor="middle">10</text><line x1="490.77" y1="289" x2="490.77" y2="294" stroke="#000000" stroke-width="1" /><text x="490.77" y="305.14" font-size="12" text-anchor="middle">12.5</text><line x1="564.61" y1="289" x2="564.61" y2="294" stroke="#000000" stroke-width="1" /><text x="564.61" y="305.14" font-size="12" text-anchor="middle">15</text><text x="343.07" y="333" font-size="14" text-anchor="middle">Week</text><text x="343.07" y="29.71" font-size="18" text-anchor="middle">Software Release Plan</text><g clip-path="url(#kuva-clip-3)"><rect x="121.53" y="46.95" width="443.09000000000003" height="22" fill="#ebebeb" /><rect x="121.53" y="73.36" width="59.08" height="13.200000000000001" fill="#1f77b4" fill-opacity="0.85" /><rect x="121.53" y="73.36" width="59.08" height="13.200000000000001" fill="none" stroke="rgba(0,0,0,0.18)" stroke-width="0.8" /><rect x="151.06" y="95.36" width="59.08" height="13.200000000000001" fill="#1f77b4" fill-opacity="0.85" /><rect x="151.06" y="95.36" width="59.08" height="13.200000000000001" fill="none" stroke="rgba(0,0,0,0.18)" stroke-width="0.8" /><path d="M 210.14000000000001,116.97 L 217.14000000000001,123.97 L 210.14000000000001,130.97 L 203.14000000000001,123.97 Z" stroke="#1f77b4" stroke-width="1" fill="#1f77b4" /><rect x="121.53" y="134.97" width="443.09000000000003" height="22" fill="#ebebeb" /><rect x="210.14000000000001" y="161.38" width="177.24" height="13.200000000000001" fill="#ff7f0e" fill-opacity="0.85" /><rect x="210.14000000000001" y="161.38" width="177.24" height="13.200000000000001" fill="none" stroke="rgba(0,0,0,0.18)" stroke-width="0.8" /><text x="298.76" y="171.99" font-size="11" text-anchor="middle" fill="#ffffff">Core build</text><rect x="328.3" y="183.38" width="118.16" height="13.200000000000001" fill="#ff7f0e" fill-opacity="0.85" /><rect x="328.3" y="183.38" width="118.16" height="13.200000000000001" fill="none" stroke="rgba(0,0,0,0.18)" stroke-width="0.8" /><text x="387.38" y="193.99" font-size="11" text-anchor="middle" fill="#ffffff">Integration</text><path d="M 446.46000000000004,204.99 L 453.46000000000004,211.99 L 446.46000000000004,218.99 L 439.46000000000004,211.99 Z" stroke="#ff7f0e" stroke-width="1" fill="#ff7f0e" /><rect x="121.53" y="222.99" width="443.09000000000003" height="22" fill="#ebebeb" /><rect x="416.92" y="249.39000000000001" width="88.62" height="13.200000000000001" fill="#2ca02c" fill-opacity="0.85" /><rect x="416.92" y="249.39000000000001" width="88.62" height="13.200000000000001" fill="none" stroke="rgba(0,0,0,0.18)" stroke-width="0.8" /><text x="461.23" y="260" font-size="11" text-anchor="middle" fill="#ffffff">Testing</text><path d="M 535.07,271 L 542.07,278 L 535.07,285 L 528.07,278 Z" stroke="#4682b4" stroke-width="1" fill="#4682b4" /><line x1="328.3" y1="46.95" x2="328.3" y2="289" stroke="#cc3333" stroke-width="1.5" stroke-dasharray="5,3" /></g><text x="185.6" y="83.97" font-size="11" text-anchor="start">Requirements</text><text x="215.14000000000001" y="105.97" font-size="11" text-anchor="start">Architecture</text><text x="222.14000000000001" y="127.98" font-size="11" text-anchor="start" font-weight="bold" fill="#1f77b4">Sign-off</text><text x="458.46000000000004" y="215.99" font-size="11" text-anchor="start" font-weight="bold" fill="#ff7f0e">Code freeze</text><text x="547.07" y="282.01" font-size="11" text-anchor="start" font-weight="bold" fill="#4682b4">Public launch</text></svg>